Dinish-SemiBold.ufo
<glyph name="numbersign" format="2">
  <advance width="542"/>
  <unicode hex="0023"/>
  <outline>
    <contour>
      <point x="427.667" y="424" type="line"/>
      <point x="411.667" y="296.667" type="line"/>
      <point x="496.333" y="296.667" type="line"/>
      <point x="496.333" y="214.667" type="line"/>
      <point x="401.333" y="214.667" type="line"/>
      <point x="372.667" y="0" type="line"/>
      <point x="281.667" y="0" type="line"/>
      <point x="309.333" y="214.667" type="line"/>
      <point x="190.333" y="214.667" type="line"/>
      <point x="161.667" y="0" type="line"/>
      <point x="71.333" y="0" type="line"/>
      <point x="99.333" y="214.667" type="line"/>
      <point x="20.667" y="214.667" type="line"/>
      <point x="20.667" y="296.667" type="line"/>
      <point x="110" y="296.667" type="line"/>
      <point x="127.333" y="424" type="line"/>
      <point x="46" y="424" type="line"/>
      <point x="46" y="505.667" type="line"/>
      <point x="137.667" y="505.667" type="line"/>
      <point x="164.333" y="707" type="line"/>
      <point x="254.333" y="707" type="line"/>
      <point x="228.667" y="505.667" type="line"/>
      <point x="347.667" y="505.667" type="line"/>
      <point x="374.333" y="707" type="line"/>
      <point x="464.667" y="707" type="line"/>
      <point x="439" y="505.667" type="line"/>
      <point x="522" y="505.667" type="line"/>
      <point x="522" y="424" type="line"/>
    </contour>
    <contour>
      <point x="337.333" y="424" type="line"/>
      <point x="217.667" y="424" type="line"/>
      <point x="200.667" y="296.667" type="line"/>
      <point x="320.333" y="296.667" type="line"/>
    </contour>
  </outline>
</glyph>
<glyph name="percent" format="2">
  <advance width="900"/>
  <unicode hex="0025"/>
  <outline>
    <contour>
      <point x="41.667" y="423.667" type="curve" smooth="yes"/>
      <point x="41.667" y="567.667" type="line" smooth="yes"/>
      <point x="41.667" y="656.398"/>
      <point x="81.322" y="713.333"/>
      <point x="175" y="713.333" type="curve" smooth="yes"/>
      <point x="271.348" y="713.333"/>
      <point x="308" y="659.176"/>
      <point x="308" y="567.667" type="curve" smooth="yes"/>
      <point x="308" y="423.667" type="line" smooth="yes"/>
      <point x="308" y="332.404"/>
      <point x="274.142" y="271"/>
      <point x="175" y="271" type="curve" smooth="yes"/>
      <point x="75.657" y="271"/>
      <point x="41.667" y="332.041"/>
    </contour>
    <contour>
      <point x="600.667" y="710.333" type="line"/>
      <point x="690" y="710.333" type="line"/>
      <point x="298.667" y="0" type="line"/>
      <point x="210.667" y="0" type="line"/>
    </contour>
    <contour>
      <point x="214.333" y="428" type="curve" smooth="yes"/>
      <point x="214.333" y="557" type="line" smooth="yes"/>
      <point x="214.333" y="587.072"/>
      <point x="215.934" y="633"/>
      <point x="175" y="633" type="curve" smooth="yes"/>
      <point x="133.921" y="633"/>
      <point x="135" y="587.372"/>
      <point x="135" y="557" type="curve" smooth="yes"/>
      <point x="135" y="428" type="line" smooth="yes"/>
      <point x="135" y="397.074"/>
      <point x="132.873" y="351.667"/>
      <point x="175" y="351.667" type="curve" smooth="yes"/>
      <point x="217.813" y="351.667"/>
      <point x="214.333" y="396.491"/>
    </contour>
    <contour>
      <point x="591.333" y="145.667" type="curve" smooth="yes"/>
      <point x="591.333" y="290.667" type="line" smooth="yes"/>
      <point x="591.333" y="379"/>
      <point x="631.763" y="435.333"/>
      <point x="724.667" y="435.333" type="curve" smooth="yes"/>
      <point x="820.076" y="435.333"/>
      <point x="858.333" y="382.047"/>
      <point x="858.333" y="290.667" type="curve" smooth="yes"/>
      <point x="858.333" y="145.667" type="line" smooth="yes"/>
      <point x="858.333" y="54.065"/>
      <point x="823.22" y="-6"/>
      <point x="724.667" y="-6" type="curve" smooth="yes"/>
      <point x="626.35" y="-6"/>
      <point x="591.333" y="54.295"/>
    </contour>
    <contour>
      <point x="764" y="150.667" type="curve" smooth="yes"/>
      <point x="764" y="280" type="line" smooth="yes"/>
      <point x="764" y="310.943"/>
      <point x="766.779" y="355.333"/>
      <point x="724.667" y="355.333" type="curve" smooth="yes"/>
      <point x="683.141" y="355.333"/>
      <point x="685.333" y="310.591"/>
      <point x="685.333" y="280" type="curve" smooth="yes"/>
      <point x="685.333" y="150.667" type="line" smooth="yes"/>
      <point x="685.333" y="119.12"/>
      <point x="681.617" y="74.333"/>
      <point x="724.667" y="74.333" type="curve" smooth="yes"/>
      <point x="767.917" y="74.333"/>
      <point x="764" y="118.527"/>
    </contour>
  </outline>
</glyph>
<glyph name="plus" format="2">
  <advance width="535"/>
  <unicode hex="002B"/>
  <outline>
    <contour>
      <point x="218" y="232.333" type="line"/>
      <point x="52" y="232.333" type="line"/>
      <point x="52" y="332.667" type="line"/>
      <point x="218" y="332.667" type="line"/>
      <point x="218" y="498.667" type="line"/>
      <point x="318.667" y="498.667" type="line"/>
      <point x="318.667" y="332.667" type="line"/>
      <point x="484" y="332.667" type="line"/>
      <point x="484" y="232.333" type="line"/>
      <point x="318.667" y="232.333" type="line"/>
      <point x="318.667" y="66.333" type="line"/>
      <point x="218" y="66.333" type="line"/>
    </contour>
  </outline>
</glyph>
<glyph name="six" format="2">
  <advance width="520"/>
  <unicode hex="0036"/>
  <outline>
    <contour>
      <point x="50.667" y="227" type="line" smooth="yes"/>
      <point x="50.667" y="282.931"/>
      <point x="70.29" y="336.733"/>
      <point x="95.333" y="386" type="curve" smooth="yes"/>
      <point x="258.333" y="707" type="line"/>
      <point x="378.333" y="707" type="line"/>
      <point x="230.333" y="412.667" type="line"/>
      <point x="248.41" y="422.64"/>
      <point x="269.066" y="426.667"/>
      <point x="289.667" y="426.667" type="curve" smooth="yes"/>
      <point x="406.997" y="426.667"/>
      <point x="469.667" y="342.798"/>
      <point x="469.667" y="231" type="curve" smooth="yes"/>
      <point x="469.667" y="198" type="line" smooth="yes"/>
      <point x="469.667" y="70.51"/>
      <point x="387.543" y="-10.667"/>
      <point x="260.333" y="-10.667" type="curve" smooth="yes"/>
      <point x="132.87" y="-10.667"/>
      <point x="50.667" y="65.577"/>
      <point x="50.667" y="194.667" type="curve" smooth="yes"/>
    </contour>
    <contour>
      <point x="355.667" y="192.667" type="curve" smooth="yes"/>
      <point x="355.667" y="225" type="line" smooth="yes"/>
      <point x="355.667" y="285.251"/>
      <point x="323.857" y="329.333"/>
      <point x="260.333" y="329.333" type="curve" smooth="yes"/>
      <point x="197.645" y="329.333"/>
      <point x="166" y="285.434"/>
      <point x="166" y="226" type="curve" smooth="yes"/>
      <point x="166" y="192.333" type="line" smooth="yes"/>
      <point x="166" y="133.433"/>
      <point x="197.448" y="86.667"/>
      <point x="260.333" y="86.667" type="curve" smooth="yes"/>
      <point x="323.871" y="86.667"/>
      <point x="355.667" y="132.931"/>
    </contour>
  </outline>
</glyph>
<glyph name="less" format="2">
  <advance width="535"/>
  <unicode hex="003C"/>
  <outline>
    <contour>
      <point x="52" y="236.333" type="line"/>
      <point x="52" y="327" type="line"/>
      <point x="483.333" y="497.667" type="line"/>
      <point x="483.333" y="395" type="line"/>
      <point x="189.333" y="281.667" type="line"/>
      <point x="483.333" y="168.333" type="line"/>
      <point x="483.333" y="64.667" type="line"/>
    </contour>
  </outline>
</glyph>
<glyph name="at" format="2">
  <advance width="893"/>
  <unicode hex="0040"/>
  <outline>
    <contour>
      <point x="50.667" y="324.333" type="line" smooth="yes"/>
      <point x="50.667" y="557.147"/>
      <point x="216.499" y="712.333"/>
      <point x="446.667" y="712.333" type="curve" smooth="yes"/>
      <point x="673.533" y="712.333"/>
      <point x="843" y="559.095"/>
      <point x="843" y="328.333" type="curve" smooth="yes"/>
      <point x="843" y="257.333" type="line" smooth="yes"/>
      <point x="843" y="152.004"/>
      <point x="794.303" y="55.667"/>
      <point x="676" y="55.667" type="curve" smooth="yes"/>
      <point x="623.148" y="55.667"/>
      <point x="575.632" y="76.333"/>
      <point x="550.333" y="124.667" type="curve"/>
      <point x="525.951" y="72.866"/>
      <point x="473.171" y="55.667"/>
      <point x="419.333" y="55.667" type="curve" smooth="yes"/>
      <point x="293.132" y="55.667"/>
      <point x="264.98" y="148.585"/>
      <point x="264.98" y="255.722" type="curve" smooth="yes"/>
      <point x="264.98" y="329" type="line" smooth="yes"/>
      <point x="264.98" y="429.193"/>
      <point x="299.922" y="515"/>
      <point x="414" y="515" type="curve" smooth="yes"/>
      <point x="456.222" y="515"/>
      <point x="500.791" y="500.128"/>
      <point x="523" y="461.667" type="curve"/>
      <point x="523" y="504.333" type="line"/>
      <point x="619.667" y="504.333" type="line"/>
      <point x="619.667" y="211" type="line" smooth="yes"/>
      <point x="619.667" y="172.629"/>
      <point x="632.884" y="138.667"/>
      <point x="677" y="138.667" type="curve" smooth="yes"/>
      <point x="734.936" y="138.667"/>
      <point x="742.736" y="207.997"/>
      <point x="742.736" y="266.284" type="curve" smooth="yes"/>
      <point x="742.736" y="327.333" type="line" smooth="yes"/>
      <point x="742.736" y="510.307"/>
      <point x="629.269" y="621.667"/>
      <point x="446.667" y="621.667" type="curve" smooth="yes"/>
      <point x="263.559" y="621.667"/>
      <point x="151.667" y="509.301"/>
      <point x="151.667" y="326.333" type="curve" smooth="yes"/>
      <point x="151.667" y="253.333" type="line" smooth="yes"/>
      <point x="151.667" y="72.241"/>
      <point x="263.911" y="-46.333"/>
      <point x="446.667" y="-46.333" type="curve" smooth="yes"/>
      <point x="525.001" y="-46.333"/>
      <point x="592.183" y="-30.462"/>
      <point x="661.667" y="6" type="curve"/>
      <point x="700.333" y="-71.667" type="line"/>
      <point x="617.301" y="-119.222"/>
      <point x="542" y="-136.333"/>
      <point x="446.667" y="-136.333" type="curve" smooth="yes"/>
      <point x="215.329" y="-136.333"/>
      <point x="50.667" y="19.49"/>
      <point x="50.667" y="253" type="curve" smooth="yes"/>
    </contour>
    <contour>
      <point x="520.667" y="243.667" type="curve" smooth="yes"/>
      <point x="520.667" y="329" type="line" smooth="yes"/>
      <point x="520.667" y="381.856"/>
      <point x="504.713" y="431.333"/>
      <point x="443.333" y="431.333" type="curve" smooth="yes"/>
      <point x="382.153" y="431.333"/>
      <point x="365.333" y="381.418"/>
      <point x="365.333" y="328.667" type="curve" smooth="yes"/>
      <point x="365.333" y="247.333" type="line" smooth="yes"/>
      <point x="365.333" y="192.99"/>
      <point x="378.49" y="140.333"/>
      <point x="443.333" y="140.333" type="curve" smooth="yes"/>
      <point x="504.76" y="140.333"/>
      <point x="520.667" y="191.024"/>
    </contour>
  </outline>
</glyph>
<glyph name="B" format="2">
  <advance width="617"/>
  <unicode hex="0042"/>
  <anchor x="276.333" y="707" name="top"/>
  <outline>
    <contour>
      <point x="561" y="200" type="curve" smooth="yes"/>
      <point x="561" y="65.997"/>
      <point x="473.356" y="0"/>
      <point x="345" y="0" type="curve" smooth="yes"/>
      <point x="153.093" y="0" type="line"/>
      <point x="153.093" y="100.333" type="line"/>
      <point x="333.333" y="100.333" type="line" smooth="yes"/>
      <point x="403.535" y="100.333"/>
      <point x="446.667" y="134.826"/>
      <point x="446.667" y="207.667" type="curve" smooth="yes"/>
      <point x="446.667" y="279.692"/>
      <point x="401.472" y="310"/>
      <point x="333.667" y="310" type="curve" smooth="yes"/>
      <point x="153.093" y="310" type="line"/>
      <point x="153.093" y="410" type="line"/>
      <point x="326.333" y="410" type="line" smooth="yes"/>
      <point x="390.033" y="410"/>
      <point x="436.333" y="437.904"/>
      <point x="436.333" y="506.667" type="curve" smooth="yes"/>
      <point x="436.333" y="575.989"/>
      <point x="392.335" y="606.667"/>
      <point x="326.667" y="606.667" type="curve" smooth="yes"/>
      <point x="153.093" y="606.667" type="line"/>
      <point x="153.093" y="707" type="line"/>
      <point x="335.667" y="707" type="line" smooth="yes"/>
      <point x="460.137" y="707"/>
      <point x="551.333" y="645.605"/>
      <point x="551.333" y="513.333" type="curve" smooth="yes"/>
      <point x="551.333" y="447.62"/>
      <point x="516.356" y="390.216"/>
      <point x="455.667" y="364" type="curve"/>
      <point x="527.103" y="336.44"/>
      <point x="561" y="274.557"/>
    </contour>
    <contour>
      <point x="67.333" y="0" type="line"/>
      <point x="67.333" y="707" type="line"/>
      <point x="182.333" y="707.299" type="line"/>
      <point x="182.333" y="-0.012" type="line"/>
    </contour>
  </outline>
</glyph>
<glyph name="D" format="2">
  <advance width="621"/>
  <unicode hex="0044"/>
  <anchor x="274.333" y="707" name="top"/>
  <outline>
    <contour>
      <point x="67.333" y="707" type="line"/>
      <point x="314" y="707" type="line" smooth="yes"/>
      <point x="492.649" y="707"/>
      <point x="564.667" y="597.233"/>
      <point x="564.667" y="429.333" type="curve" smooth="yes"/>
      <point x="564.667" y="278" type="line" smooth="yes"/>
      <point x="564.667" y="108.426"/>
      <point x="490.746" y="0"/>
      <point x="311.333" y="0" type="curve" smooth="yes"/>
      <point x="67.333" y="0" type="line"/>
    </contour>
    <contour>
      <point x="313.667" y="100.667" type="line" smooth="yes"/>
      <point x="422.554" y="100.667"/>
      <point x="450.333" y="183.612"/>
      <point x="450.333" y="277.333" type="curve" smooth="yes"/>
      <point x="450.333" y="423.667" type="line" smooth="yes"/>
      <point x="450.333" y="517.705"/>
      <point x="424.908" y="606.333"/>
      <point x="313.667" y="606.333" type="curve" smooth="yes"/>
      <point x="182.667" y="606.333" type="line"/>
      <point x="182.667" y="100.667" type="line"/>
    </contour>
  </outline>
</glyph>
<glyph name="F" format="2">
  <advance width="543"/>
  <unicode hex="0046"/>
  <anchor x="288.333" y="707" name="top"/>
  <outline>
    <contour>
      <point x="182.333" y="606.333" type="line"/>
      <point x="182.333" y="403" type="line"/>
      <point x="462.667" y="403" type="line"/>
      <point x="462.667" y="302.667" type="line"/>
      <point x="182.333" y="302.667" type="line"/>
      <point x="182.333" y="0" type="line"/>
      <point x="67.333" y="0" type="line"/>
      <point x="67.333" y="707" type="line"/>
      <point x="509.667" y="707" type="line"/>
      <point x="509.667" y="606.333" type="line"/>
    </contour>
  </outline>
</glyph>
<glyph name="J" format="2">
  <advance width="332"/>
  <unicode hex="004A"/>
  <anchor x="200.667" y="707" name="top"/>
  <outline>
    <contour>
      <point x="27.667" y="101.333" type="line"/>
      <point x="94.516" y="101.333"/>
      <point x="143.333" y="88.375"/>
      <point x="143.333" y="171" type="curve" smooth="yes"/>
      <point x="143.333" y="707" type="line"/>
      <point x="258" y="707" type="line"/>
      <point x="258" y="153.333" type="line" smooth="yes"/>
      <point x="258" y="56.335"/>
      <point x="206.534" y="0"/>
      <point x="108" y="0" type="curve" smooth="yes"/>
      <point x="27.667" y="0" type="line"/>
    </contour>
  </outline>
</glyph>
<glyph name="K" format="2">
  <advance width="620"/>
  <unicode hex="004B"/>
  <anchor x="297" y="707" name="top"/>
  <outline>
    <contour>
      <point x="292.333" y="333.667" type="line"/>
      <point x="182.333" y="197" type="line"/>
      <point x="182.333" y="0" type="line"/>
      <point x="67.333" y="0" type="line"/>
      <point x="67.333" y="707" type="line"/>
      <point x="182.333" y="707" type="line"/>
      <point x="182.333" y="349.667" type="line"/>
      <point x="453.667" y="707" type="line"/>
      <point x="590.667" y="707" type="line"/>
      <point x="365.667" y="425.667" type="line"/>
      <point x="613.333" y="0" type="line"/>
      <point x="481" y="0" type="line"/>
    </contour>
  </outline>
</glyph>
<glyph name="L" format="2">
  <advance width="532"/>
  <unicode hex="004C"/>
  <anchor x="125" y="707" name="top"/>
  <outline>
    <contour>
      <point x="67.333" y="707" type="line"/>
      <point x="182.333" y="707" type="line"/>
      <point x="182.333" y="100.667" type="line"/>
      <point x="505.667" y="100.667" type="line"/>
      <point x="505.667" y="0" type="line"/>
      <point x="67.333" y="0" type="line"/>
    </contour>
  </outline>
</glyph>
<glyph name="R" format="2">
  <advance width="614"/>
  <unicode hex="0052"/>
  <anchor x="283" y="707" name="top"/>
  <outline>
    <contour>
      <point x="305.667" y="294.667" type="line"/>
      <point x="182.333" y="294.667" type="line"/>
      <point x="182.333" y="0" type="line"/>
      <point x="67.333" y="0" type="line"/>
      <point x="67.333" y="707" type="line"/>
      <point x="334" y="707" type="line" smooth="yes"/>
      <point x="462.885" y="707"/>
      <point x="555.667" y="634.124"/>
      <point x="555.667" y="500" type="curve" smooth="yes"/>
      <point x="555.667" y="409.142"/>
      <point x="509.866" y="338.131"/>
      <point x="422" y="310.333" type="curve"/>
      <point x="580" y="0" type="line"/>
      <point x="448" y="0" type="line"/>
    </contour>
    <contour>
      <point x="182.333" y="390.333" type="line"/>
      <point x="327.333" y="390.333" type="line" smooth="yes"/>
      <point x="397.236" y="390.333"/>
      <point x="441.333" y="428.017"/>
      <point x="441.333" y="499.667" type="curve" smooth="yes"/>
      <point x="441.333" y="568.99"/>
      <point x="393.97" y="606.333"/>
      <point x="327.333" y="606.333" type="curve" smooth="yes"/>
      <point x="182.333" y="606.333" type="line"/>
    </contour>
  </outline>
</glyph>
<glyph name="W" format="2">
  <advance width="840"/>
  <unicode hex="0057"/>
  <anchor x="421.333" y="707" name="top"/>
  <outline>
    <contour>
      <point x="835.333" y="707" type="line"/>
      <point x="663.667" y="0" type="line"/>
      <point x="559.333" y="0" type="line"/>
      <point x="421.333" y="553" type="line"/>
      <point x="285" y="0" type="line"/>
      <point x="181.333" y="0" type="line"/>
      <point x="5" y="707" type="line"/>
      <point x="118.667" y="707" type="line"/>
      <point x="237.667" y="179" type="line"/>
      <point x="352.333" y="707" type="line"/>
      <point x="495.667" y="707" type="line"/>
      <point x="616" y="179" type="line"/>
      <point x="728.667" y="707" type="line"/>
    </contour>
  </outline>
</glyph>
<glyph name="grave" format="2">
  <advance width="512"/>
  <unicode hex="0060"/>
  <outline>
    <contour>
      <point x="137.333" y="730" type="line"/>
      <point x="259.333" y="730" type="line"/>
      <point x="367" y="596.667" type="line"/>
      <point x="272" y="596.667" type="line"/>
    </contour>
  </outline>
</glyph>
<glyph name="a" format="2">
  <advance width="511"/>
  <unicode hex="0061"/>
  <anchor x="257.667" y="527.667" name="top"/>
  <outline>
    <contour>
      <point x="449.333" y="351" type="curve" smooth="yes"/>
      <point x="449.333" y="0" type="line"/>
      <point x="344.667" y="0" type="line"/>
      <point x="344.667" y="49" type="line"/>
      <point x="311.06" y="11.246"/>
      <point x="262.481" y="-6"/>
      <point x="212.667" y="-6" type="curve" smooth="yes"/>
      <point x="111.403" y="-6"/>
      <point x="40.667" y="50.194"/>
      <point x="40.667" y="155.333" type="curve" smooth="yes"/>
      <point x="40.667" y="281.103"/>
      <point x="147.475" y="309.784"/>
      <point x="252.464" y="309.784" type="curve" smooth="yes"/>
      <point x="282.322" y="309.784"/>
      <point x="312.153" y="308.297"/>
      <point x="342" y="307.667" type="curve"/>
      <point x="342" y="355.333" type="line" smooth="yes"/>
      <point x="342" y="416.664"/>
      <point x="307.285" y="450"/>
      <point x="246.333" y="450" type="curve" smooth="yes"/>
      <point x="200.423" y="450"/>
      <point x="156.333" y="425.294"/>
      <point x="156.333" y="373.667" type="curve"/>
      <point x="55" y="373.667" type="line"/>
      <point x="55" y="378" type="line" smooth="yes"/>
      <point x="55" y="486.828"/>
      <point x="149.487" y="534.667"/>
      <point x="246.667" y="534.667" type="curve" smooth="yes"/>
      <point x="365.192" y="534.667"/>
      <point x="449.333" y="476.619"/>
    </contour>
    <contour>
      <point x="342" y="184.667" type="curve" smooth="yes"/>
      <point x="342" y="232.667" type="line"/>
      <point x="237.333" y="232.667" type="line" smooth="yes"/>
      <point x="188.245" y="232.667"/>
      <point x="146" y="212.697"/>
      <point x="146" y="157.667" type="curve" smooth="yes"/>
      <point x="146" y="102.435"/>
      <point x="185.181" y="80.667"/>
      <point x="235.667" y="80.667" type="curve" smooth="yes"/>
      <point x="305.025" y="80.667"/>
      <point x="342" y="114.363"/>
    </contour>
  </outline>
</glyph>
<glyph name="i" format="2">
  <advance width="240"/>
  <unicode hex="0069"/>
  <outline>
    <contour>
      <point x="66.333" y="527.667" type="line"/>
      <point x="173.667" y="527.667" type="line"/>
      <point x="173.667" y="0" type="line"/>
      <point x="66.333" y="0" type="line"/>
    </contour>
    <contour>
      <point x="64.333" y="707" type="line"/>
      <point x="175" y="707" type="line"/>
      <point x="175" y="608.333" type="line"/>
      <point x="64.333" y="608.333" type="line"/>
    </contour>
  </outline>
</glyph>
<glyph name="j" format="2">
  <advance width="239"/>
  <unicode hex="006A"/>
  <outline>
    <contour>
      <point x="63" y="707" type="line"/>
      <point x="173.333" y="707" type="line"/>
      <point x="173.333" y="608" type="line"/>
      <point x="63" y="608" type="line"/>
    </contour>
    <contour>
      <point x="-33" y="-64" type="line"/>
      <point x="26.109" y="-64"/>
      <point x="65.667" y="-71.436"/>
      <point x="65.667" y="1.667" type="curve" smooth="yes"/>
      <point x="65.667" y="527.667" type="line"/>
      <point x="172.667" y="527.667" type="line"/>
      <point x="172.667" y="-5" type="line" smooth="yes"/>
      <point x="172.667" y="-101.679"/>
      <point x="121.747" y="-158.667"/>
      <point x="23.333" y="-158.667" type="curve" smooth="yes"/>
      <point x="-33" y="-158.667" type="line"/>
    </contour>
  </outline>
</glyph>
<glyph name="o" format="2">
  <advance width="520"/>
  <unicode hex="006F"/>
  <anchor x="261.333" y="527.667" name="top"/>
  <outline>
    <contour>
      <point x="50.667" y="213.667" type="curve" smooth="yes"/>
      <point x="50.667" y="315" type="line" smooth="yes"/>
      <point x="50.667" y="451.054"/>
      <point x="121.824" y="534.667"/>
      <point x="261.333" y="534.667" type="curve" smooth="yes"/>
      <point x="400.823" y="534.667"/>
      <point x="469.667" y="450.125"/>
      <point x="469.667" y="315" type="curve" smooth="yes"/>
      <point x="469.667" y="213.667" type="line" smooth="yes"/>
      <point x="469.667" y="77.791"/>
      <point x="401.605" y="-6"/>
      <point x="261.333" y="-6" type="curve" smooth="yes"/>
      <point x="121.041" y="-6"/>
      <point x="50.667" y="76.853"/>
    </contour>
    <contour>
      <point x="362.333" y="215.667" type="curve" smooth="yes"/>
      <point x="362.333" y="312.333" type="line" smooth="yes"/>
      <point x="362.333" y="379.988"/>
      <point x="338.343" y="438.333"/>
      <point x="261.333" y="438.333" type="curve" smooth="yes"/>
      <point x="183.956" y="438.333"/>
      <point x="158" y="381.205"/>
      <point x="158" y="312.333" type="curve" smooth="yes"/>
      <point x="158" y="215.667" type="line" smooth="yes"/>
      <point x="158" y="147.008"/>
      <point x="184.088" y="89.333"/>
      <point x="261.333" y="89.333" type="curve" smooth="yes"/>
      <point x="338.207" y="89.333"/>
      <point x="362.333" y="148.223"/>
    </contour>
  </outline>
</glyph>
<glyph name="p" format="2">
  <advance width="525"/>
  <unicode hex="0070"/>
  <anchor x="268" y="527.667" name="top"/>
  <outline>
    <contour>
      <point x="62.333" y="527.667" type="line"/>
      <point x="168" y="527.667" type="line"/>
      <point x="168" y="467.333" type="line"/>
      <point x="197.409" y="510.726"/>
      <point x="242.131" y="534.333"/>
      <point x="294.667" y="534.333" type="curve" smooth="yes"/>
      <point x="425.002" y="534.333"/>
      <point x="474.667" y="433.856"/>
      <point x="474.667" y="317" type="curve" smooth="yes"/>
      <point x="474.667" y="211.667" type="line" smooth="yes"/>
      <point x="474.667" y="98.208"/>
      <point x="427.301" y="-6"/>
      <point x="299" y="-6" type="curve" smooth="yes"/>
      <point x="247.281" y="-6"/>
      <point x="200.606" y="12"/>
      <point x="170" y="55" type="curve"/>
      <point x="170" y="-158.667" type="line"/>
      <point x="62.333" y="-158.667" type="line"/>
    </contour>
    <contour>
      <point x="366.667" y="215.667" type="curve" smooth="yes"/>
      <point x="366.667" y="312" type="line" smooth="yes"/>
      <point x="366.667" y="377.491"/>
      <point x="346.533" y="438.333"/>
      <point x="270" y="438.333" type="curve" smooth="yes"/>
      <point x="195.875" y="438.333"/>
      <point x="169.333" y="375.007"/>
      <point x="169.333" y="310.333" type="curve" smooth="yes"/>
      <point x="169.333" y="216" type="line" smooth="yes"/>
      <point x="169.333" y="149.375"/>
      <point x="198.689" y="89.333"/>
      <point x="273.333" y="89.333" type="curve" smooth="yes"/>
      <point x="348.655" y="89.333"/>
      <point x="366.667" y="152.374"/>
    </contour>
  </outline>
</glyph>
<glyph name="t" format="2">
  <advance width="356"/>
  <unicode hex="0074"/>
  <anchor x="158.333" y="677.667" name="top"/>
  <outline>
    <contour>
      <point x="212" y="450" type="line"/>
      <point x="212" y="152" type="line" smooth="yes"/>
      <point x="212" y="95.791"/>
      <point x="260.607" y="91.587"/>
      <point x="309.333" y="92.333" type="curve"/>
      <point x="309.333" y="0" type="line"/>
      <point x="252" y="0" type="line" smooth="yes"/>
      <point x="162.113" y="0"/>
      <point x="104.667" y="55.205"/>
      <point x="104.667" y="145.667" type="curve" smooth="yes"/>
      <point x="104.667" y="450" type="line"/>
      <point x="29" y="450" type="line"/>
      <point x="29" y="527.667" type="line"/>
      <point x="104.667" y="527.667" type="line"/>
      <point x="104.667" y="637.333" type="line"/>
      <point x="212" y="677.667" type="line"/>
      <point x="212" y="527.667" type="line"/>
      <point x="319.667" y="527.667" type="line"/>
      <point x="319.667" y="450" type="line"/>
    </contour>
  </outline>
</glyph>
<glyph name="y" format="2">
  <advance width="478"/>
  <unicode hex="0079"/>
  <anchor x="232.333" y="527.667" name="top"/>
  <outline>
    <contour>
      <point x="467.667" y="527.667" type="line"/>
      <point x="267.333" y="-49.333" type="line" smooth="yes"/>
      <point x="233.65" y="-146.329"/>
      <point x="172.76" y="-157.341"/>
      <point x="79.557" y="-157.341" type="curve"/>
      <point x="75" y="-157.333" type="line"/>
      <point x="75" y="-60" type="line"/>
      <point x="98.671" y="-60.219" type="line"/>
      <point x="156.861" y="-60.219"/>
      <point x="175.277" y="-44.534"/>
      <point x="190.333" y="11" type="curve"/>
      <point x="10.667" y="527.667" type="line"/>
      <point x="125.333" y="527.667" type="line"/>
      <point x="240.667" y="167.333" type="line"/>
      <point x="356.667" y="527.667" type="line"/>
    </contour>
  </outline>
</glyph>
<glyph name="braceright" format="2">
  <advance width="361"/>
  <unicode hex="007D"/>
  <outline>
    <contour>
      <point x="50.667" y="2.667" type="line"/>
      <point x="92.275" y="2.667"/>
      <point x="131.667" y="-4.267"/>
      <point x="131.667" y="50.333" type="curve" smooth="yes"/>
      <point x="131.667" y="211" type="line" smooth="yes"/>
      <point x="131.667" y="270.668"/>
      <point x="139.139" y="315.555"/>
      <point x="201" y="338" type="curve"/>
      <point x="138.639" y="359.028"/>
      <point x="131.667" y="406.381"/>
      <point x="131.667" y="465.333" type="curve" smooth="yes"/>
      <point x="131.667" y="621" type="line" smooth="yes"/>
      <point x="131.667" y="675.654"/>
      <point x="92.256" y="668.333"/>
      <point x="50.667" y="668.333" type="curve"/>
      <point x="50.667" y="758" type="line"/>
      <point x="116.667" y="758" type="line" smooth="yes"/>
      <point x="195.032" y="758"/>
      <point x="235.333" y="714.59"/>
      <point x="235.333" y="637" type="curve" smooth="yes"/>
      <point x="235.333" y="467.667" type="line" smooth="yes"/>
      <point x="235.333" y="413.254"/>
      <point x="254.405" y="386.019"/>
      <point x="311.333" y="385.333" type="curve"/>
      <point x="311.333" y="291" type="line"/>
      <point x="254.405" y="290.314"/>
      <point x="235.333" y="263.079"/>
      <point x="235.333" y="208.667" type="curve" smooth="yes"/>
      <point x="235.333" y="35.667" type="line" smooth="yes"/>
      <point x="235.333" y="-42.255"/>
      <point x="195.611" y="-86"/>
      <point x="116.667" y="-86" type="curve" smooth="yes"/>
      <point x="50.667" y="-86" type="line"/>
    </contour>
  </outline>
</glyph>
<glyph name="sterling" format="2">
  <advance width="467"/>
  <unicode hex="00A3"/>
  <outline>
    <contour>
      <point x="47.667" y="0" type="line"/>
      <point x="47.667" y="95" type="line"/>
      <point x="88.735" y="117.133"/>
      <point x="93" y="150.752"/>
      <point x="93" y="193.667" type="curve" smooth="yes"/>
      <point x="93" y="287.667" type="line"/>
      <point x="28.667" y="287.667" type="line"/>
      <point x="28.667" y="387.667" type="line"/>
      <point x="93" y="387.667" type="line"/>
      <point x="93" y="529.667" type="line" smooth="yes"/>
      <point x="93" y="642.171"/>
      <point x="151.28" y="717"/>
      <point x="268.333" y="717" type="curve" smooth="yes"/>
      <point x="371.79" y="717"/>
      <point x="437.692" y="656.645"/>
      <point x="437.667" y="551.667" type="curve"/>
      <point x="329.667" y="551.667" type="line"/>
      <point x="329.73" y="589.456"/>
      <point x="308.961" y="617.667"/>
      <point x="269.333" y="617.667" type="curve" smooth="yes"/>
      <point x="225.266" y="617.667"/>
      <point x="207.667" y="583.67"/>
      <point x="207.667" y="544" type="curve" smooth="yes"/>
      <point x="207.667" y="387.667" type="line"/>
      <point x="343.667" y="387.667" type="line"/>
      <point x="343.667" y="287.667" type="line"/>
      <point x="207.883" y="287.667" type="line"/>
      <point x="207.883" y="215.292" type="line" smooth="yes"/>
      <point x="207.883" y="173.712"/>
      <point x="203.372" y="131.624"/>
      <point x="175" y="100.667" type="curve"/>
      <point x="439" y="100.667" type="line"/>
      <point x="439" y="0" type="line"/>
    </contour>
  </outline>
</glyph>
<glyph name="registered" format="2">
  <advance width="506"/>
  <unicode hex="00AE"/>
  <outline>
    <contour>
      <point x="60" y="511.333" type="curve" smooth="yes"/>
      <point x="60" y="620.631"/>
      <point x="142.342" y="707.333"/>
      <point x="252.667" y="707.333" type="curve" smooth="yes"/>
      <point x="364.158" y="707.333"/>
      <point x="446" y="621.969"/>
      <point x="446" y="511.333" type="curve" smooth="yes"/>
      <point x="446" y="400.177"/>
      <point x="365.026" y="314.333"/>
      <point x="252.667" y="314.333" type="curve" smooth="yes"/>
      <point x="141.556" y="314.333"/>
      <point x="60" y="401.527"/>
    </contour>
    <contour>
      <point x="405.333" y="511.333" type="curve" smooth="yes"/>
      <point x="405.333" y="601.667"/>
      <point x="344.896" y="669.333"/>
      <point x="252.667" y="669.333" type="curve" smooth="yes"/>
      <point x="159.871" y="669.333"/>
      <point x="100.333" y="602.053"/>
      <point x="100.333" y="511.333" type="curve" smooth="yes"/>
      <point x="100.333" y="421.066"/>
      <point x="159.972" y="352.333"/>
      <point x="252.667" y="352.333" type="curve" smooth="yes"/>
      <point x="345.557" y="352.333"/>
      <point x="405.333" y="420.81"/>
    </contour>
    <contour>
      <point x="176.333" y="621.667" type="line"/>
      <point x="264.333" y="621.667" type="line" smooth="yes"/>
      <point x="308.01" y="621.667"/>
      <point x="340.667" y="601.756"/>
      <point x="340.667" y="554.667" type="curve" smooth="yes"/>
      <point x="340.667" y="526.12"/>
      <point x="328.215" y="505.672"/>
      <point x="302" y="494" type="curve"/>
      <point x="346" y="403" type="line"/>
      <point x="294.667" y="403" type="line"/>
      <point x="255" y="486.667" type="line"/>
      <point x="224" y="486.667" type="line"/>
      <point x="224" y="403" type="line"/>
      <point x="176.333" y="403" type="line"/>
    </contour>
    <contour>
      <point x="262" y="527.333" type="line" smooth="yes"/>
      <point x="280.029" y="527.333"/>
      <point x="293.667" y="534.224"/>
      <point x="293.667" y="554" type="curve" smooth="yes"/>
      <point x="293.667" y="573.776"/>
      <point x="280.029" y="580.667"/>
      <point x="262" y="580.667" type="curve" smooth="yes"/>
      <point x="224" y="580.667" type="line"/>
      <point x="224" y="527.333" type="line"/>
    </contour>
  </outline>
</glyph>
<glyph name="degree" format="2">
  <advance width="409"/>
  <unicode hex="00B0"/>
  <outline>
    <contour>
      <point x="56.667" y="569" type="curve" smooth="yes"/>
      <point x="56.667" y="653.983"/>
      <point x="119.898" y="717.667"/>
      <point x="205" y="717.667" type="curve" smooth="yes"/>
      <point x="289.138" y="717.667"/>
      <point x="352.333" y="652.673"/>
      <point x="352.333" y="569" type="curve" smooth="yes"/>
      <point x="352.333" y="484.698"/>
      <point x="289.314" y="421.333"/>
      <point x="205" y="421.333" type="curve" smooth="yes"/>
      <point x="119.702" y="421.333"/>
      <point x="56.667" y="483.465"/>
    </contour>
    <contour>
      <point x="281.667" y="569" type="curve" smooth="yes"/>
      <point x="281.667" y="613.448"/>
      <point x="250.828" y="650"/>
      <point x="205" y="650" type="curve" smooth="yes"/>
      <point x="157.229" y="650"/>
      <point x="127.333" y="615.699"/>
      <point x="127.333" y="569" type="curve" smooth="yes"/>
      <point x="127.333" y="522.819"/>
      <point x="158.194" y="489.333"/>
      <point x="205" y="489.333" type="curve" smooth="yes"/>
      <point x="249.889" y="489.333"/>
      <point x="281.667" y="525.063"/>
    </contour>
  </outline>
</glyph>
<glyph name="plusminus" format="2">
  <advance width="535"/>
  <unicode hex="00B1"/>
  <outline>
    <contour>
      <point x="218" y="287.333" type="line"/>
      <point x="52" y="287.333" type="line"/>
      <point x="52" y="387" type="line"/>
      <point x="218" y="387" type="line"/>
      <point x="218" y="553" type="line"/>
      <point x="318.667" y="553" type="line"/>
      <point x="318.667" y="387" type="line"/>
      <point x="484" y="387" type="line"/>
      <point x="484" y="287.333" type="line"/>
      <point x="318.667" y="287.333" type="line"/>
      <point x="318.667" y="121.333" type="line"/>
      <point x="218" y="121.333" type="line"/>
    </contour>
    <contour>
      <point x="52" y="74.333" type="line"/>
      <point x="484" y="74.333" type="line"/>
      <point x="484" y="-26" type="line"/>
      <point x="52" y="-26" type="line"/>
    </contour>
  </outline>
</glyph>
<glyph name="twosuperior" format="2">
  <advance width="345"/>
  <unicode hex="00B2"/>
  <outline>
    <contour>
      <point x="45.333" y="512.667" type="line"/>
      <point x="186" y="693.333" type="line" smooth="yes"/>
      <point x="202.707" y="714.877"/>
      <point x="208.667" y="728.398"/>
      <point x="208.667" y="755.667" type="curve" smooth="yes"/>
      <point x="208.667" y="780.267"/>
      <point x="196.371" y="797.667"/>
      <point x="170.333" y="797.667" type="curve" smooth="yes"/>
      <point x="136.314" y="797.667"/>
      <point x="132.333" y="769.037"/>
      <point x="132.333" y="742" type="curve"/>
      <point x="42.333" y="742" type="line"/>
      <point x="42.333" y="758" type="line" smooth="yes"/>
      <point x="42.333" y="835.179"/>
      <point x="101.826" y="876"/>
      <point x="174.333" y="876" type="curve" smooth="yes"/>
      <point x="254.66" y="876"/>
      <point x="303.667" y="828.329"/>
      <point x="303.667" y="748.333" type="curve" smooth="yes"/>
      <point x="303.667" y="706.909"/>
      <point x="287.725" y="679.867"/>
      <point x="263" y="648.333" type="curve" smooth="yes"/>
      <point x="163.667" y="521" type="line"/>
      <point x="304" y="521" type="line"/>
      <point x="304" y="440" type="line"/>
      <point x="45.333" y="440" type="line"/>
    </contour>
  </outline>
</glyph>
<glyph name="paragraph" format="2">
  <advance width="648"/>
  <unicode hex="00B6"/>
  <outline>
    <contour>
      <point x="266" y="265.667" type="line"/>
      <point x="145.045" y="274.462"/>
      <point x="67.333" y="366.885"/>
      <point x="67.333" y="486.333" type="curve" smooth="yes"/>
      <point x="67.333" y="620.752"/>
      <point x="165.249" y="707"/>
      <point x="296.667" y="707" type="curve" smooth="yes"/>
      <point x="547" y="707" type="line"/>
      <point x="547" y="-158.667" type="line"/>
      <point x="451.333" y="-158.667" type="line"/>
      <point x="451.333" y="616" type="line"/>
      <point x="364.333" y="616" type="line"/>
      <point x="364.333" y="-158.667" type="line"/>
      <point x="266" y="-158.667" type="line"/>
    </contour>
  </outline>
</glyph>
<glyph name="onesuperior" format="2">
  <advance width="248"/>
  <unicode hex="00B9"/>
  <outline>
    <contour>
      <point x="99.667" y="767.667" type="line"/>
      <point x="29" y="716" type="line"/>
      <point x="29" y="816" type="line"/>
      <point x="100.333" y="868.333" type="line"/>
      <point x="194" y="868.333" type="line"/>
      <point x="194" y="440" type="line"/>
      <point x="99.667" y="440" type="line"/>
    </contour>
  </outline>
</glyph>
<glyph name="threequarters" format="2">
  <advance width="891"/>
  <unicode hex="00BE"/>
  <outline>
    <contour>
      <point x="38.667" y="398.667" type="curve"/>
      <point x="122.333" y="398.667" type="line"/>
      <point x="122.333" y="366.669"/>
      <point x="131.42" y="348"/>
      <point x="167" y="348" type="curve" smooth="yes"/>
      <point x="204.361" y="348"/>
      <point x="210.333" y="377.353"/>
      <point x="210.333" y="407.667" type="curve" smooth="yes"/>
      <point x="210.333" y="457.589"/>
      <point x="178.557" y="460"/>
      <point x="138.333" y="460" type="curve"/>
      <point x="138.333" y="537" type="line"/>
      <point x="183.125" y="537"/>
      <point x="203.333" y="540.451"/>
      <point x="203.333" y="591.333" type="curve" smooth="yes"/>
      <point x="203.333" y="616.671"/>
      <point x="192.11" y="636"/>
      <point x="164.667" y="636" type="curve" smooth="yes"/>
      <point x="129.738" y="636"/>
      <point x="124" y="616.383"/>
      <point x="124" y="586.333" type="curve"/>
      <point x="40.667" y="586.333" type="line"/>
      <point x="40.667" y="596.667" type="line" smooth="yes"/>
      <point x="40.667" y="674.335"/>
      <point x="94.006" y="714"/>
      <point x="168" y="714" type="curve" smooth="yes"/>
      <point x="248.565" y="714"/>
      <point x="293.333" y="670.366"/>
      <point x="293.333" y="590" type="curve" smooth="yes"/>
      <point x="293.333" y="553.743"/>
      <point x="276.214" y="523.607"/>
      <point x="244.333" y="506" type="curve"/>
      <point x="290.772" y="487.081"/>
      <point x="300" y="441.282"/>
      <point x="300" y="396.333" type="curve" smooth="yes"/>
      <point x="300" y="320.075"/>
      <point x="243.87" y="271"/>
      <point x="169.333" y="271" type="curve" smooth="yes"/>
      <point x="81.464" y="271"/>
      <point x="38.667" y="311.066"/>
    </contour>
    <contour>
      <point x="863.667" y="64.333" type="line"/>
      <point x="831.667" y="64.333" type="line"/>
      <point x="831.667" y="0" type="line"/>
      <point x="738.333" y="0" type="line"/>
      <point x="738.333" y="64.333" type="line"/>
      <point x="574" y="64.333" type="line"/>
      <point x="574" y="145.667" type="line"/>
      <point x="692.667" y="428.333" type="line"/>
      <point x="785.667" y="428.333" type="line"/>
      <point x="667.333" y="145.667" type="line"/>
      <point x="738.333" y="145.667" type="line"/>
      <point x="738.333" y="239.333" type="line"/>
      <point x="831.667" y="239.333" type="line"/>
      <point x="831.667" y="145.667" type="line"/>
      <point x="863.667" y="145.667" type="line"/>
    </contour>
    <contour>
      <point x="591.667" y="710.333" type="line"/>
      <point x="680.667" y="710.333" type="line"/>
      <point x="290" y="0" type="line"/>
      <point x="202" y="0" type="line"/>
    </contour>
  </outline>
</glyph>
<glyph name="questiondown" format="2">
  <advance width="454"/>
  <unicode hex="00BF"/>
  <outline>
    <contour>
      <point x="174.333" y="527.667" type="line"/>
      <point x="293.333" y="527.667" type="line"/>
      <point x="293.333" y="407.333" type="line"/>
      <point x="174.333" y="407.333" type="line"/>
    </contour>
    <contour>
      <point x="39.333" y="7.667" type="curve" smooth="yes"/>
      <point x="39.333" y="96.145"/>
      <point x="87.729" y="144.11"/>
      <point x="143" y="207" type="curve" smooth="yes"/>
      <point x="171.959" y="239.982"/>
      <point x="178.752" y="260.949"/>
      <point x="178.752" y="308.197" type="curve" smooth="yes"/>
      <point x="178.752" y="334" type="line"/>
      <point x="288.333" y="334" type="line"/>
      <point x="288.333" y="295.667" type="line" smooth="yes"/>
      <point x="288.333" y="146.256"/>
      <point x="151.667" y="125.649"/>
      <point x="151.667" y="12.333" type="curve" smooth="yes"/>
      <point x="151.667" y="-40.803"/>
      <point x="182.037" y="-69.333"/>
      <point x="234.667" y="-69.333" type="curve" smooth="yes"/>
      <point x="294.45" y="-69.333"/>
      <point x="314.479" y="-32.642"/>
      <point x="315.667" y="22.333" type="curve"/>
      <point x="423" y="22.333" type="line"/>
      <point x="423" y="-100.874"/>
      <point x="354.541" y="-168.667"/>
      <point x="230.667" y="-168.667" type="curve" smooth="yes"/>
      <point x="123.884" y="-168.667"/>
      <point x="39.333" y="-104.132"/>
    </contour>
  </outline>
</glyph>
<glyph name="Ccedilla" format="2">
  <advance width="617"/>
  <unicode hex="00C7"/>
  <outline>
    <contour>
      <point x="446.667" y="482.333" type="line"/>
      <point x="446.667" y="568.372"/>
      <point x="396.677" y="615.333"/>
      <point x="311.333" y="615.333" type="curve" smooth="yes"/>
      <point x="196.762" y="615.333"/>
      <point x="171.333" y="530.964"/>
      <point x="171.333" y="432.667" type="curve" smooth="yes"/>
      <point x="171.333" y="269.333" type="line" smooth="yes"/>
      <point x="171.333" y="171.525"/>
      <point x="202.517" y="94.667"/>
      <point x="313" y="94.667" type="curve" smooth="yes"/>
      <point x="399.578" y="94.667"/>
      <point x="446.667" y="140.228"/>
      <point x="446.667" y="226.667" type="curve"/>
      <point x="559" y="226.667" type="line"/>
      <point x="559" y="220.667" type="line" smooth="yes"/>
      <point x="559" y="100.512"/>
      <point x="494.61" y="19.301"/>
      <point x="375.667" y="-2.667" type="curve"/>
      <point x="326.667" y="-158" type="line"/>
      <point x="224.333" y="-158" type="line"/>
      <point x="284.333" y="-7.333" type="line"/>
      <point x="118.437" y="3.729"/>
      <point x="56.667" y="114.257"/>
      <point x="56.667" y="269.333" type="curve" smooth="yes"/>
      <point x="56.667" y="438.333" type="line" smooth="yes"/>
      <point x="56.667" y="610.084"/>
      <point x="131.494" y="716.667"/>
      <point x="312" y="716.667" type="curve" smooth="yes"/>
      <point x="461.039" y="716.667"/>
      <point x="561" y="635.765"/>
      <point x="561" y="482.333" type="curve"/>
    </contour>
  </outline>
</glyph>
<glyph name="Iacute" format="2">
  <advance width="263"/>
  <unicode hex="00CD"/>
  <outline>
    <contour>
      <point x="74.6667" y="707" type="line"/>
      <point x="189" y="707" type="line"/>
      <point x="189" y="0" type="line"/>
      <point x="74.6667" y="0" type="line"/>
    </contour>
    <contour>
      <point x="149.666" y="908.333" type="line"/>
      <point x="272.333" y="908.333" type="line"/>
      <point x="136.666" y="775" type="line"/>
      <point x="42.3333" y="775" type="line"/>
    </contour>
  </outline>
</glyph>
<glyph name="multiply" format="2">
  <advance width="535"/>
  <unicode hex="00D7"/>
  <outline>
    <contour>
      <point x="77.667" y="159.667" type="line"/>
      <point x="201" y="283.333" type="line"/>
      <point x="77.667" y="407.333" type="line"/>
      <point x="144" y="473.667" type="line"/>
      <point x="268" y="350.333" type="line"/>
      <point x="391.333" y="473.667" type="line"/>
      <point x="458.667" y="406" type="line"/>
      <point x="335.333" y="283.333" type="line"/>
      <point x="458.667" y="159.667" type="line"/>
      <point x="391.333" y="92" type="line"/>
      <point x="268" y="216" type="line"/>
      <point x="144" y="92" type="line"/>
    </contour>
  </outline>
</glyph>
<glyph name="ccedilla" format="2">
  <advance width="516"/>
  <unicode hex="00E7"/>
  <outline>
    <contour>
      <point x="362.333" y="342" type="line"/>
      <point x="362.333" y="404.349"/>
      <point x="326.661" y="438.333"/>
      <point x="264.333" y="438.333" type="curve" smooth="yes"/>
      <point x="183.96" y="438.333"/>
      <point x="158" y="385.228"/>
      <point x="158" y="312.333" type="curve" smooth="yes"/>
      <point x="158" y="215.667" type="line" smooth="yes"/>
      <point x="158" y="142.418"/>
      <point x="182.193" y="89.333"/>
      <point x="264" y="89.333" type="curve" smooth="yes"/>
      <point x="325.771" y="89.333"/>
      <point x="362.333" y="121.029"/>
      <point x="362.333" y="183.667" type="curve"/>
      <point x="465.667" y="183.667" type="line"/>
      <point x="465.667" y="177.667" type="line" smooth="yes"/>
      <point x="465.667" y="85.68"/>
      <point x="414.255" y="21.199"/>
      <point x="324.667" y="0.333" type="curve"/>
      <point x="274.667" y="-158" type="line"/>
      <point x="172.667" y="-158" type="line"/>
      <point x="233.667" y="-4.667" type="line"/>
      <point x="105.032" y="5.844"/>
      <point x="50.667" y="91.284"/>
      <point x="50.667" y="213.667" type="curve" smooth="yes"/>
      <point x="50.667" y="315" type="line" smooth="yes"/>
      <point x="50.667" y="452.95"/>
      <point x="120.283" y="534.667"/>
      <point x="262" y="534.667" type="curve" smooth="yes"/>
      <point x="386.719" y="534.667"/>
      <point x="465.667" y="469.993"/>
      <point x="465.667" y="342" type="curve"/>
    </contour>
  </outline>
</glyph>
<glyph name="eth" format="2">
  <advance width="516"/>
  <unicode hex="00F0"/>
  <outline>
    <contour>
      <point x="465.667" y="221" type="curve" smooth="yes"/>
      <point x="465.667" y="84.345"/>
      <point x="402.565" y="-10.333"/>
      <point x="257" y="-10.333" type="curve" smooth="yes"/>
      <point x="117.252" y="-10.333"/>
      <point x="50.667" y="80.267"/>
      <point x="50.667" y="213.333" type="curve" smooth="yes"/>
      <point x="50.667" y="262" type="line" smooth="yes"/>
      <point x="50.667" y="375.878"/>
      <point x="100.585" y="479"/>
      <point x="228.333" y="479" type="curve" smooth="yes"/>
      <point x="252.558" y="479"/>
      <point x="277.409" y="475.917"/>
      <point x="299.333" y="465" type="curve"/>
      <point x="235" y="555.333" type="line"/>
      <point x="130" y="523" type="line"/>
      <point x="107.667" y="595.333" type="line"/>
      <point x="189.667" y="620.333" type="line"/>
      <point x="126.333" y="710.333" type="line"/>
      <point x="241.667" y="710.333" type="line"/>
      <point x="285.333" y="649" type="line"/>
      <point x="384.667" y="680" type="line"/>
      <point x="407" y="607.333" type="line"/>
      <point x="331.333" y="584.667" type="line"/>
      <point x="430.577" y="447.1"/>
      <point x="465.667" y="393.403"/>
    </contour>
    <contour>
      <point x="363" y="263.333" type="line" smooth="yes"/>
      <point x="363" y="334.178"/>
      <point x="337.698" y="389.667"/>
      <point x="259" y="389.667" type="curve" smooth="yes"/>
      <point x="180.167" y="389.667"/>
      <point x="152.667" y="337.753"/>
      <point x="152.667" y="265.333" type="curve" smooth="yes"/>
      <point x="152.667" y="214.667" type="line" smooth="yes"/>
      <point x="152.667" y="141.92"/>
      <point x="178.022" y="85"/>
      <point x="259" y="85" type="curve" smooth="yes"/>
      <point x="339.166" y="85"/>
      <point x="363" y="143.911"/>
      <point x="363" y="215" type="curve" smooth="yes"/>
    </contour>
  </outline>
</glyph>
<glyph name="oslash" format="2">
  <advance width="520"/>
  <unicode hex="00F8"/>
  <outline>
    <contour>
      <point x="420" y="474" type="line"/>
      <point x="458.596" y="430.717"/>
      <point x="469.667" y="371.325"/>
      <point x="469.667" y="315" type="curve" smooth="yes"/>
      <point x="469.667" y="213.667" type="line" smooth="yes"/>
      <point x="469.667" y="76.397"/>
      <point x="403.479" y="-6"/>
      <point x="261.333" y="-6" type="curve" smooth="yes"/>
      <point x="219.693" y="-6"/>
      <point x="176.9" y="0.783"/>
      <point x="140.333" y="21.667" type="curve"/>
      <point x="108.333" y="-30.333" type="line"/>
      <point x="50.667" y="-30.333" type="line"/>
      <point x="102" y="52.667" type="line"/>
      <point x="62.275" y="95.877"/>
      <point x="50.667" y="156.739"/>
      <point x="50.667" y="213.667" type="curve" smooth="yes"/>
      <point x="50.667" y="315" type="line" smooth="yes"/>
      <point x="50.667" y="452.392"/>
      <point x="120.07" y="534.667"/>
      <point x="261.333" y="534.667" type="curve" smooth="yes"/>
      <point x="303.087" y="534.667"/>
      <point x="345.731" y="526.766"/>
      <point x="382" y="505.333" type="curve"/>
      <point x="412.667" y="554.667" type="line"/>
      <point x="469.667" y="554.667" type="line"/>
    </contour>
    <contour>
      <point x="166" y="156.667" type="curve"/>
      <point x="327" y="417.333" type="line"/>
      <point x="309.032" y="433.052"/>
      <point x="284.653" y="438.333"/>
      <point x="261.333" y="438.333" type="curve" smooth="yes"/>
      <point x="181.893" y="438.333"/>
      <point x="158" y="383.272"/>
      <point x="158" y="312.333" type="curve" smooth="yes"/>
      <point x="158" y="215.667" type="line" smooth="yes"/>
      <point x="158" y="195.766"/>
      <point x="159.893" y="175.536"/>
    </contour>
    <contour>
      <point x="354.667" y="369" type="curve"/>
      <point x="194.667" y="110" type="line"/>
      <point x="213.071" y="94.282"/>
      <point x="237.711" y="89.333"/>
      <point x="261.333" y="89.333" type="curve" smooth="yes"/>
      <point x="340.158" y="89.333"/>
      <point x="362.333" y="146.374"/>
      <point x="362.333" y="215.667" type="curve" smooth="yes"/>
      <point x="362.333" y="312.333" type="line" smooth="yes"/>
      <point x="362.333" y="331.4"/>
      <point x="360.814" y="350.976"/>
    </contour>
  </outline>
</glyph>
<glyph name="eogonek" format="2">
  <advance width="524"/>
  <unicode hex="0119"/>
  <outline>
    <component base="e"/>
    <contour>
      <point x="221" y="-84" type="curve"/>
      <point x="329.333" y="34.333" type="line"/>
      <point x="420.251" y="51.667" type="line"/>
      <point x="312" y="-91" type="line"/>
      <point x="334.202" y="-118.376"/>
      <point x="372.699" y="-123.845"/>
      <point x="412.333" y="-123.667" type="curve"/>
      <point x="412.333" y="-203.667" type="line"/>
      <point x="327.14" y="-203.667"/>
      <point x="250.608" y="-169.438"/>
    </contour>
  </outline>
</glyph>
<glyph name="gcommaaccent" format="2">
  <advance width="525"/>
  <unicode hex="0123"/>
  <outline>
    <component base="g"/>
    <contour>
      <point x="296.667" y="567.333" type="line"/>
      <point x="208.667" y="567.333" type="line"/>
      <point x="208.667" y="632.333" type="line"/>
      <point x="296.667" y="707" type="line"/>
    </contour>
  </outline>
</glyph>
<glyph name="hbar" format="2">
  <advance width="533"/>
  <unicode hex="0127"/>
  <outline>
    <component base="h"/>
    <contour>
      <point x="10" y="648.333" type="line"/>
      <point x="292" y="648.333" type="line"/>
      <point x="292" y="584" type="line"/>
      <point x="10" y="584" type="line"/>
    </contour>
  </outline>
</glyph>
<glyph name="IJ" format="2">
  <advance width="635"/>
  <unicode hex="0132"/>
  <outline>
    <contour>
      <point x="71.333" y="197" type="curve"/>
      <point x="187.667" y="197" type="line"/>
      <point x="201.538" y="129.854"/>
      <point x="248.571" y="94"/>
      <point x="317.333" y="94" type="curve" smooth="yes"/>
      <point x="405.392" y="94"/>
      <point x="453.333" y="152.603"/>
      <point x="453.333" y="237.667" type="curve" smooth="yes"/>
      <point x="453.333" y="707" type="line"/>
      <point x="568" y="707" type="line"/>
      <point x="568" y="232" type="line" smooth="yes"/>
      <point x="568" y="86.804"/>
      <point x="458.434" y="-6"/>
      <point x="317.333" y="-6" type="curve" smooth="yes"/>
      <point x="193.88" y="-6"/>
      <point x="85.892" y="69.928"/>
    </contour>
    <contour>
      <point x="67.333" y="707" type="line"/>
      <point x="182.667" y="707" type="line"/>
      <point x="182.667" y="352" type="line"/>
      <point x="67.333" y="352" type="line"/>
    </contour>
  </outline>
</glyph>
<glyph name="Eng" format="2">
  <advance width="659"/>
  <unicode hex="014A"/>
  <outline>
    <contour>
      <point x="67.333" y="707" type="line"/>
      <point x="182.333" y="707" type="line"/>
      <point x="477.333" y="222.333" type="line"/>
      <point x="477.333" y="707" type="line"/>
      <point x="591.667" y="707" type="line"/>
      <point x="591.667" y="-12.333" type="line" smooth="yes"/>
      <point x="591.667" y="-111.936"/>
      <point x="544.877" y="-173"/>
      <point x="441" y="-173" type="curve" smooth="yes"/>
      <point x="386" y="-173" type="line"/>
      <point x="386" y="-78.667" type="line"/>
      <point x="460.65" y="-78.667"/>
      <point x="477.404" y="-78.745"/>
      <point x="477.333" y="0" type="curve"/>
      <point x="182.333" y="483.667" type="line"/>
      <point x="182.333" y="0" type="line"/>
      <point x="67.333" y="0" type="line"/>
    </contour>
  </outline>
</glyph>
<glyph name="eng" format="2">
  <advance width="533"/>
  <unicode hex="014B"/>
  <outline>
    <contour>
      <point x="62.333" y="527.667" type="line"/>
      <point x="167.667" y="527.667" type="line"/>
      <point x="167.667" y="474.667" type="line"/>
      <point x="199.71" y="515.104"/>
      <point x="247.663" y="534.333"/>
      <point x="298.667" y="534.333" type="curve" smooth="yes"/>
      <point x="414.536" y="534.333"/>
      <point x="471" y="454.771"/>
      <point x="471" y="345" type="curve" smooth="yes"/>
      <point x="471" y="0" type="line"/>
      <point x="362.667" y="0" type="line"/>
      <point x="362.667" y="331.667" type="line" smooth="yes"/>
      <point x="362.667" y="392.61"/>
      <point x="332.723" y="438.333"/>
      <point x="267.333" y="438.333" type="curve" smooth="yes"/>
      <point x="203.608" y="438.333"/>
      <point x="170" y="391.944"/>
      <point x="170" y="331.667" type="curve" smooth="yes"/>
      <point x="170" y="0" type="line"/>
      <point x="62.333" y="0" type="line"/>
    </contour>
    <contour>
      <point x="320.667" y="-173" type="curve" smooth="yes"/>
      <point x="265.667" y="-173" type="line"/>
      <point x="265.667" y="-78.667" type="line"/>
      <point x="336.627" y="-78.667"/>
      <point x="362.738" y="-60.336"/>
      <point x="362.667" y="0" type="curve"/>
      <point x="471" y="0" type="line"/>
      <point x="471.036" y="-111.279"/>
      <point x="426.838" y="-173"/>
    </contour>
  </outline>
</glyph>
<glyph name="scaron" format="2">
  <advance width="481"/>
  <unicode hex="0161"/>
  <outline>
    <contour>
      <point x="40.667" y="158" type="curve"/>
      <point x="142.667" y="158" type="line"/>
      <point x="142.667" y="100.944"/>
      <point x="192.147" y="81.667"/>
      <point x="241.667" y="81.667" type="curve" smooth="yes"/>
      <point x="287.288" y="81.667"/>
      <point x="342.667" y="96.37"/>
      <point x="342.667" y="152" type="curve" smooth="yes"/>
      <point x="342.667" y="275.311"/>
      <point x="48" y="162.525"/>
      <point x="48" y="375.333" type="curve" smooth="yes"/>
      <point x="48" y="484.643"/>
      <point x="142.934" y="534.667"/>
      <point x="241" y="534.667" type="curve" smooth="yes"/>
      <point x="339.263" y="534.667"/>
      <point x="437" y="489.207"/>
      <point x="437" y="378" type="curve"/>
      <point x="336.333" y="378" type="line"/>
      <point x="336.333" y="433.265"/>
      <point x="288.875" y="449"/>
      <point x="241.667" y="449" type="curve" smooth="yes"/>
      <point x="198.303" y="449"/>
      <point x="150" y="434.105"/>
      <point x="150" y="382.333" type="curve" smooth="yes"/>
      <point x="150" y="260.91"/>
      <point x="445.667" y="373.254"/>
      <point x="445.667" y="159.333" type="curve" smooth="yes"/>
      <point x="445.667" y="39.355"/>
      <point x="343.46" y="-6"/>
      <point x="238" y="-6" type="curve" smooth="yes"/>
      <point x="132.992" y="-6"/>
      <point x="40.667" y="41.51"/>
    </contour>
    <contour>
      <point x="84.667" y="733.333" type="line"/>
      <point x="172.667" y="733.333" type="line"/>
      <point x="241" y="647.667" type="line"/>
      <point x="308" y="733.333" type="line"/>
      <point x="396" y="733.333" type="line"/>
      <point x="280.667" y="581.667" type="line"/>
      <point x="200" y="581.667" type="line"/>
    </contour>
  </outline>
</glyph>
<glyph name="Ydieresis" format="2">
  <advance width="539"/>
  <unicode hex="0178"/>
  <outline>
    <contour>
      <point x="327" y="292.667" type="line"/>
      <point x="327" y="0" type="line"/>
      <point x="212.667" y="0" type="line"/>
      <point x="212.667" y="292.333" type="line"/>
      <point x="5" y="707" type="line"/>
      <point x="130" y="707" type="line"/>
      <point x="269" y="402.667" type="line"/>
      <point x="409" y="707" type="line"/>
      <point x="534.667" y="707" type="line"/>
    </contour>
    <contour>
      <point x="125" y="885" type="line"/>
      <point x="223.667" y="885" type="line"/>
      <point x="223.667" y="776.333" type="line"/>
      <point x="125" y="776.333" type="line"/>
    </contour>
    <contour>
      <point x="314" y="885" type="line"/>
      <point x="413.333" y="885" type="line"/>
      <point x="413.333" y="776.333" type="line"/>
      <point x="314" y="776.333" type="line"/>
    </contour>
  </outline>
</glyph>
<glyph name="lbar" format="2">
  <advance width="288"/>
  <unicode hex="019A"/>
  <outline>
    <component base="l"/>
    <contour>
      <point x="13.333" y="405" type="line"/>
      <point x="265.333" y="405" type="line"/>
      <point x="265.333" y="304" type="line"/>
      <point x="13.333" y="304" type="line"/>
    </contour>
  </outline>
</glyph>
<glyph name="breve" format="2">
  <advance width="512"/>
  <unicode hex="02D8"/>
  <outline>
    <contour>
      <point x="255" y="569.667" type="curve" smooth="yes"/>
      <point x="152.176" y="569.667"/>
      <point x="111.517" y="631.901"/>
      <point x="111.344" y="727.007" type="curve"/>
      <point x="111.333" y="737" type="line"/>
      <point x="186" y="737" type="line"/>
      <point x="185.977" y="732.315" type="line"/>
      <point x="185.977" y="682.647"/>
      <point x="195.025" y="637.667"/>
      <point x="255" y="637.667" type="curve" smooth="yes"/>
      <point x="313.081" y="637.667"/>
      <point x="324.103" y="686.456"/>
      <point x="324" y="737" type="curve"/>
      <point x="398.667" y="737" type="line"/>
      <point x="398.667" y="721.667" type="line" smooth="yes"/>
      <point x="398.667" y="628.453"/>
      <point x="351.408" y="569.667"/>
    </contour>
  </outline>
</glyph>
<glyph name="ogonek" format="2">
  <advance width="512"/>
  <unicode hex="02DB"/>
  <outline>
    <contour>
      <point x="349.333" y="8.667" type="line"/>
      <point x="425.667" y="8.667" type="line"/>
      <point x="425.508" y="-0.148" type="line"/>
      <point x="325.333" y="-111" type="line"/>
      <point x="347.044" y="-137.285"/>
      <point x="387.626" y="-143.819"/>
      <point x="425.667" y="-143.667" type="curve"/>
      <point x="425.667" y="-223.667" type="line"/>
      <point x="341.03" y="-223.667"/>
      <point x="263.596" y="-188.75"/>
      <point x="234.333" y="-104" type="curve"/>
    </contour>
  </outline>
</glyph>
<glyph name="tilde" format="2">
  <advance width="512"/>
  <unicode hex="02DC"/>
  <outline>
    <contour>
      <point x="117" y="673.667" type="line"/>
      <point x="140.336" y="698.099"/>
      <point x="160.385" y="716"/>
      <point x="196" y="716" type="curve" smooth="yes"/>
      <point x="249.541" y="716"/>
      <point x="276.49" y="676.667"/>
      <point x="320" y="676.667" type="curve" smooth="yes"/>
      <point x="352.771" y="676.667"/>
      <point x="371.653" y="696.311"/>
      <point x="394" y="717.333" type="curve"/>
      <point x="394" y="634.667" type="line"/>
      <point x="371.143" y="610.978"/>
      <point x="349.599" y="592.667"/>
      <point x="315" y="592.667" type="curve" smooth="yes"/>
      <point x="263.624" y="592.667"/>
      <point x="233.673" y="631.667"/>
      <point x="192" y="631.667" type="curve" smooth="yes"/>
      <point x="159.953" y="631.667"/>
      <point x="138.997" y="612.421"/>
      <point x="117" y="591.667" type="curve"/>
    </contour>
  </outline>
</glyph>
<glyph name="gravecomb" format="2">
  <unicode hex="0300"/>
  <anchor x="0" y="527.667" name="_top"/>
  <outline>
    <contour>
      <point x="-151.667" y="730" type="line"/>
      <point x="-29.667" y="730" type="line"/>
      <point x="78" y="596.667" type="line"/>
      <point x="-16.667" y="596.667" type="line"/>
    </contour>
  </outline>
</glyph>
<glyph name="circumflexcmb" format="2">
  <unicode hex="0302"/>
  <anchor x="0" y="527.667" name="_top"/>
  <outline>
    <contour>
      <point x="-41" y="737.667" type="line"/>
      <point x="40" y="737.667" type="line"/>
      <point x="155" y="585.667" type="line"/>
      <point x="68" y="585.667" type="line"/>
      <point x="0" y="671.667" type="line"/>
      <point x="-68.333" y="585.667" type="line"/>
      <point x="-156" y="585.667" type="line"/>
    </contour>
  </outline>
</glyph>
<glyph name="tildecomb" format="2">
  <unicode hex="0303"/>
  <anchor x="0" y="527.667" name="_top"/>
  <outline>
    <contour>
      <point x="-139" y="673.667" type="line"/>
      <point x="-117.919" y="696.302"/>
      <point x="-92.389" y="716"/>
      <point x="-60" y="716" type="curve" smooth="yes"/>
      <point x="-12.747" y="716"/>
      <point x="20.746" y="676.667"/>
      <point x="64" y="676.667" type="curve" smooth="yes"/>
      <point x="94.022" y="676.667"/>
      <point x="117.754" y="697.59"/>
      <point x="138" y="717.333" type="curve"/>
      <point x="138" y="634.667" type="line"/>
      <point x="116.901" y="612.27"/>
      <point x="91.193" y="592.667"/>
      <point x="59" y="592.667" type="curve" smooth="yes"/>
      <point x="12.466" y="592.667"/>
      <point x="-21.241" y="631.667"/>
      <point x="-64" y="631.667" type="curve" smooth="yes"/>
      <point x="-93.96" y="631.667"/>
      <point x="-118.629" y="611.438"/>
      <point x="-139" y="591.667" type="curve"/>
    </contour>
  </outline>
</glyph>
<glyph name="macroncmb" format="2">
  <unicode hex="0304"/>
  <outline>
    <contour>
      <point x="-140.333" y="700.667" type="line"/>
      <point x="140.333" y="700.667" type="line"/>
      <point x="140.333" y="604" type="line"/>
      <point x="-140.333" y="604" type="line"/>
    </contour>
  </outline>
</glyph>
<glyph name="hungarumlautcmb" format="2">
  <unicode hex="030B"/>
  <outline>
    <contour>
      <point x="12.667" y="730" type="line"/>
      <point x="134.667" y="730" type="line"/>
      <point x="0" y="596.667" type="line"/>
      <point x="-95" y="596.667" type="line"/>
    </contour>
    <contour>
      <point x="99.333" y="730" type="line"/>
      <point x="221.333" y="730" type="line"/>
      <point x="86.667" y="596.667" type="line"/>
      <point x="-8.333" y="596.667" type="line"/>
    </contour>
  </outline>
</glyph>
<glyph name="commaaccentcomb" format="2">
  <unicode hex="0326"/>
  <outline>
    <contour>
      <point x="-44" y="-33.333" type="line"/>
      <point x="44" y="-33.333" type="line"/>
      <point x="44" y="-98.333" type="line"/>
      <point x="-44" y="-173" type="line"/>
    </contour>
  </outline>
</glyph>
<glyph name="cedillacmb" format="2">
  <unicode hex="0327"/>
  <outline>
    <contour>
      <point x="239" y="12.667" type="line"/>
      <point x="327" y="12.667" type="line"/>
      <point x="272.333" y="-158" type="line"/>
      <point x="171" y="-158" type="line"/>
    </contour>
  </outline>
</glyph>
<glyph name="Eukrcyr" format="2">
  <advance width="615"/>
  <unicode hex="0404"/>
  <anchor x="307" y="707" name="top"/>
  <outline>
    <component base="C"/>
    <contour>
      <point x="140" y="408.571" type="line"/>
      <point x="380.227" y="408.571" type="line"/>
      <point x="380.227" y="308.238" type="line"/>
      <point x="140" y="308.238" type="line"/>
    </contour>
  </outline>
</glyph>
<glyph name="Decyr" format="2">
  <advance width="721"/>
  <unicode hex="0414"/>
  <outline>
    <contour>
      <point x="570.819" y="-169.881" type="line"/>
      <point x="570.819" y="100.512" type="line"/>
      <point x="685.153" y="100.513" type="line"/>
      <point x="685.153" y="-169.881" type="line"/>
    </contour>
    <contour>
      <point x="20.749" y="-169.881" type="line"/>
      <point x="20.749" y="100.296" type="line"/>
      <point x="135.082" y="100.296" type="line"/>
      <point x="135.082" y="-169.881" type="line"/>
    </contour>
    <contour>
      <point x="58.941" y="-0.25" type="line"/>
      <point x="58.941" y="100.08" type="line"/>
      <point x="584.506" y="100.08" type="line"/>
      <point x="584.506" y="-0.25" type="line"/>
    </contour>
    <contour>
      <point x="495" y="0" type="line"/>
      <point x="495" y="707" type="line"/>
      <point x="609.333" y="707" type="line"/>
      <point x="609.333" y="0" type="line"/>
    </contour>
    <contour>
      <point x="230.667" y="606.667" type="line"/>
      <point x="230.667" y="707" type="line"/>
      <point x="526.667" y="707" type="line"/>
      <point x="526.667" y="606.667" type="line"/>
    </contour>
    <contour>
      <point x="56.32" y="100.205" type="line"/>
      <point x="106.118" y="100.296"/>
      <point x="152.826" y="231.039"/>
      <point x="170.573" y="526.042" type="curve" smooth="yes"/>
      <point x="182" y="707" type="line"/>
      <point x="296.333" y="707" type="line"/>
      <point x="284.44" y="516.728" type="line"/>
      <point x="268.391" y="231.111"/>
      <point x="198.095" y="0"/>
      <point x="56.067" y="0" type="curve"/>
    </contour>
  </outline>
</glyph>
<glyph name="Zecyr" format="2">
  <advance width="613"/>
  <unicode hex="0417"/>
  <outline>
    <contour>
      <point x="556.667" y="196" type="curve" smooth="yes"/>
      <point x="556.667" y="61.997"/>
      <point x="443.062" y="-8"/>
      <point x="312.834" y="-8" type="curve" smooth="yes"/>
      <point x="163.582" y="-8"/>
      <point x="60.527" y="73.994"/>
      <point x="57.427" y="195.459" type="curve"/>
      <point x="172.427" y="195.667" type="line"/>
      <point x="172.427" y="132.866"/>
      <point x="230.926" y="92.333"/>
      <point x="310.687" y="92.333" type="curve" smooth="yes"/>
      <point x="382.883" y="92.333"/>
      <point x="442.333" y="130.826"/>
      <point x="442.333" y="203.667" type="curve" smooth="yes"/>
      <point x="442.333" y="275.692"/>
      <point x="395.704" y="310"/>
      <point x="325.909" y="310" type="curve" smooth="yes"/>
      <point x="232.093" y="310" type="line"/>
      <point x="232.093" y="410" type="line"/>
      <point x="318.56" y="410" type="line" smooth="yes"/>
      <point x="384.217" y="410"/>
      <point x="432" y="441.904"/>
      <point x="432" y="510.667" type="curve" smooth="yes"/>
      <point x="432" y="579.989"/>
      <point x="373.577" y="616.333"/>
      <point x="305.952" y="616.333" type="curve" smooth="yes"/>
      <point x="228.573" y="616.333"/>
      <point x="172.427" y="576.043"/>
      <point x="172.427" y="512.693" type="curve"/>
      <point x="57.427" y="512.694" type="line"/>
      <point x="57.579" y="637.751"/>
      <point x="154.538" y="716.667"/>
      <point x="308.094" y="716.667" type="curve" smooth="yes"/>
      <point x="434.435" y="716.667"/>
      <point x="547" y="649.605"/>
      <point x="547" y="517.333" type="curve" smooth="yes"/>
      <point x="547" y="451.62"/>
      <point x="512.023" y="390.216"/>
      <point x="451.333" y="364" type="curve"/>
      <point x="522.77" y="336.44"/>
      <point x="556.667" y="270.557"/>
    </contour>
  </outline>
</glyph>
<glyph name="Ucyr" format="2">
  <advance width="539"/>
  <unicode hex="0423"/>
  <anchor x="269" y="707" name="top"/>
  <outline>
    <contour>
      <point x="300.12" y="122.728" type="line" smooth="yes"/>
      <point x="263.307" y="30.555"/>
      <point x="205.84" y="-8"/>
      <point x="128.574" y="-8" type="curve" smooth="yes"/>
      <point x="77.426" y="-8" type="line"/>
      <point x="77.426" y="98.667" type="line"/>
      <point x="104.244" y="98.778" type="line" smooth="yes"/>
      <point x="139.097" y="98.923"/>
      <point x="171.453" y="110.618"/>
      <point x="186.752" y="148.574" type="curve" smooth="yes"/>
      <point x="226.553" y="244.246" type="line"/>
      <point x="231.747" y="270.574" type="line"/>
      <point x="409" y="707" type="line"/>
      <point x="534.667" y="707" type="line"/>
    </contour>
    <contour>
      <point x="206.623" y="187.692" type="line"/>
      <point x="5" y="707" type="line"/>
      <point x="130" y="707" type="line"/>
      <point x="274.878" y="312.844" type="line"/>
    </contour>
  </outline>
</glyph>
<glyph name="Tsecyr" format="2">
  <advance width="632"/>
  <unicode hex="0426"/>
  <outline>
    <contour>
      <point x="68.2743" y="-0.25" type="line"/>
      <point x="68.2743" y="100.08" type="line"/>
      <point x="571.193" y="100.08" type="line"/>
      <point x="571.193" y="-0.25" type="line"/>
    </contour>
    <contour>
      <point x="507.486" y="-169.881" type="line"/>
      <point x="507.486" y="100.512" type="line"/>
      <point x="621.82" y="100.513" type="line"/>
      <point x="621.82" y="-169.881" type="line"/>
    </contour>
    <contour>
      <point x="431.667" y="0" type="line"/>
      <point x="431.667" y="707" type="line"/>
      <point x="546" y="707" type="line"/>
      <point x="546" y="0" type="line"/>
    </contour>
    <contour>
      <point x="68.0023" y="0" type="line"/>
      <point x="68.0023" y="707" type="line"/>
      <point x="182.335" y="707" type="line"/>
      <point x="182.335" y="0" type="line"/>
    </contour>
  </outline>
</glyph>
<glyph name="Shacyr" format="2">
  <advance width="837"/>
  <unicode hex="0428"/>
  <outline>
    <contour>
      <point x="68.275" y="-0.25" type="line"/>
      <point x="68.275" y="100.08" type="line"/>
      <point x="769.754" y="100.08" type="line"/>
      <point x="769.754" y="-0.25" type="line"/>
    </contour>
    <contour>
      <point x="655.667" y="0" type="line"/>
      <point x="655.667" y="707" type="line"/>
      <point x="770" y="707" type="line"/>
      <point x="770" y="0" type="line"/>
    </contour>
    <contour>
      <point x="68.0023" y="0" type="line"/>
      <point x="68.0023" y="707" type="line"/>
      <point x="182.335" y="707" type="line"/>
      <point x="182.335" y="0" type="line"/>
    </contour>
    <contour>
      <point x="361.301" y="0" type="line"/>
      <point x="361.301" y="707" type="line"/>
      <point x="475.634" y="707" type="line"/>
      <point x="475.634" y="0" type="line"/>
    </contour>
  </outline>
</glyph>
<glyph name="Ereversedcyr" format="2">
  <advance width="616"/>
  <unicode hex="042D"/>
  <outline>
    <contour>
      <point x="558.003" y="269.333" type="line" smooth="yes"/>
      <point x="558.003" y="99.487"/>
      <point x="483.145" y="-8"/>
      <point x="304.003" y="-8" type="curve" smooth="yes"/>
      <point x="158.784" y="-8"/>
      <point x="55.6701" y="68.261"/>
      <point x="55.6701" y="220.667" type="curve" smooth="yes"/>
      <point x="55.6701" y="226.667" type="line"/>
      <point x="168.003" y="226.667" type="line"/>
      <point x="167.631" y="141.059"/>
      <point x="217.434" y="94.667"/>
      <point x="301.67" y="94.667" type="curve" smooth="yes"/>
      <point x="411.526" y="94.667"/>
      <point x="443.337" y="172.355"/>
      <point x="443.337" y="269.333" type="curve" smooth="yes"/>
      <point x="443.337" y="432.667" type="line" smooth="yes"/>
      <point x="443.337" y="530.11"/>
      <point x="417.304" y="615.333"/>
      <point x="303.337" y="615.333" type="curve" smooth="yes"/>
      <point x="220.126" y="615.333"/>
      <point x="167.62" y="567.307"/>
      <point x="168.003" y="482.333" type="curve"/>
      <point x="53.6701" y="482.333" type="line"/>
      <point x="52.9821" y="635.337"/>
      <point x="155.378" y="716.667"/>
      <point x="302.67" y="716.667" type="curve" smooth="yes"/>
      <point x="482.606" y="716.667"/>
      <point x="558.003" y="609.103"/>
      <point x="558.003" y="438.333" type="curve" smooth="yes"/>
    </contour>
    <contour>
      <point x="474.67" y="308.238" type="line"/>
      <point x="234.443" y="308.238" type="line"/>
      <point x="234.443" y="408.571" type="line"/>
      <point x="474.67" y="408.571" type="line"/>
    </contour>
  </outline>
</glyph>
<glyph name="Yucyr" format="2">
  <advance width="831"/>
  <unicode hex="042E"/>
  <outline>
    <contour>
      <point x="330" y="308.667" type="line"/>
      <point x="182.333" y="308.667" type="line"/>
      <point x="182.333" y="0" type="line"/>
      <point x="67.333" y="0" type="line"/>
      <point x="67.333" y="707" type="line"/>
      <point x="182.333" y="707" type="line"/>
      <point x="182.333" y="409" type="line"/>
      <point x="330" y="409" type="line"/>
    </contour>
    <contour>
      <point x="270" y="268.893" type="curve" smooth="yes"/>
      <point x="270" y="437.449" type="line" smooth="yes"/>
      <point x="270" y="619.167"/>
      <point x="358.343" y="716.667"/>
      <point x="523" y="716.667" type="curve" smooth="yes"/>
      <point x="686.733" y="716.667"/>
      <point x="774.333" y="619.348"/>
      <point x="774.333" y="437.449" type="curve" smooth="yes"/>
      <point x="774.333" y="268.893" type="line" smooth="yes"/>
      <point x="774.333" y="89.431"/>
      <point x="684.851" y="-8"/>
      <point x="520" y="-8" type="curve" smooth="yes"/>
      <point x="356.736" y="-8"/>
      <point x="270" y="88.065"/>
    </contour>
    <contour>
      <point x="660" y="268.887" type="curve" smooth="yes"/>
      <point x="660" y="431.802" type="line" smooth="yes"/>
      <point x="660" y="552.261"/>
      <point x="612.57" y="614"/>
      <point x="520.17" y="614" type="curve" smooth="yes"/>
      <point x="428.732" y="614"/>
      <point x="384.666" y="554.789"/>
      <point x="384.666" y="431.802" type="curve" smooth="yes"/>
      <point x="384.666" y="268.887" type="line" smooth="yes"/>
      <point x="384.666" y="152.782"/>
      <point x="430.373" y="94.667"/>
      <point x="521.43" y="94.667" type="curve" smooth="yes"/>
      <point x="612.583" y="94.667"/>
      <point x="660" y="154.27"/>
    </contour>
  </outline>
</glyph>
<glyph name="vecyr" format="2">
  <advance width="505"/>
  <unicode hex="0432"/>
  <anchor x="270.333" y="707" name="top"/>
  <outline>
    <component base="dotlessi" xOffset="-6"/>
    <contour>
      <point x="454.117" y="149.28" type="curve" smooth="yes"/>
      <point x="454.117" y="205.15"/>
      <point x="428.512" y="250.868"/>
      <point x="374.529" y="271.538" type="curve"/>
      <point x="420" y="291.202"/>
      <point x="446.207" y="333.555"/>
      <point x="446.207" y="382.8" type="curve" smooth="yes"/>
      <point x="446.207" y="481.967"/>
      <point x="372.647" y="527.667"/>
      <point x="272.25" y="527.667" type="curve" smooth="yes"/>
      <point x="130.815" y="527.667" type="line"/>
      <point x="130.815" y="452.289" type="line"/>
      <point x="255.762" y="452.36" type="line" smooth="yes"/>
      <point x="304.943" y="452.386"/>
      <point x="337.885" y="429.707"/>
      <point x="337.885" y="377.794" type="curve" smooth="yes"/>
      <point x="337.885" y="326.302"/>
      <point x="303.218" y="305.906"/>
      <point x="255.514" y="305.906" type="curve" smooth="yes"/>
      <point x="130.815" y="305.906" type="line"/>
      <point x="130.815" y="231.17" type="line"/>
      <point x="261.016" y="231.17" type="line" smooth="yes"/>
      <point x="311.796" y="231.17"/>
      <point x="345.629" y="208.971"/>
      <point x="345.629" y="155.034" type="curve" smooth="yes"/>
      <point x="345.629" y="100.488"/>
      <point x="313.346" y="75.251"/>
      <point x="260.768" y="75.31" type="curve" smooth="yes"/>
      <point x="130.815" y="75.448" type="line"/>
      <point x="130.815" y="0" type="line"/>
      <point x="279.876" y="0" type="line" smooth="yes"/>
      <point x="383.465" y="0"/>
      <point x="454.117" y="48.817"/>
    </contour>
  </outline>
</glyph>
<glyph name="decyr" format="2">
  <advance width="596"/>
  <unicode hex="0434"/>
  <outline>
    <component base="dotlessi" xOffset="336.333"/>
    <contour>
      <point x="10.416" y="-169.881" type="line"/>
      <point x="10.416" y="75.296" type="line"/>
      <point x="119.416" y="75.296" type="line"/>
      <point x="119.416" y="-169.881" type="line"/>
    </contour>
    <contour>
      <point x="48.608" y="-0.186" type="line"/>
      <point x="48.608" y="75.145" type="line"/>
      <point x="512.166" y="75.145" type="line"/>
      <point x="512.166" y="-0.186" type="line"/>
    </contour>
    <contour>
      <point x="476.153" y="-169.881" type="line"/>
      <point x="476.153" y="75.512" type="line"/>
      <point x="585.153" y="75.512" type="line"/>
      <point x="585.153" y="-169.881" type="line"/>
    </contour>
    <contour>
      <point x="36.418" y="75.296" type="line"/>
      <point x="93.073" y="75.374"/>
      <point x="145.007" y="212.969"/>
      <point x="160.774" y="400.231" type="curve" smooth="yes"/>
      <point x="172.201" y="527.662" type="line"/>
      <point x="278.667" y="527.662" type="line"/>
      <point x="266.773" y="385.329" type="line"/>
      <point x="251.716" y="182.014"/>
      <point x="189.594" y="36.612"/>
      <point x="102.067" y="0" type="curve"/>
    </contour>
    <contour>
      <point x="213.667" y="447.333" type="line"/>
      <point x="213.667" y="527.667" type="line"/>
      <point x="449.667" y="527.667" type="line"/>
      <point x="449.667" y="447.333" type="line"/>
    </contour>
  </outline>
</glyph>
<glyph name="zecyr" format="2">
  <advance width="491"/>
  <unicode hex="0437"/>
  <anchor x="241.333" y="707" name="top"/>
  <outline>
    <contour>
      <point x="440.117" y="146.577" type="curve" smooth="yes"/>
      <point x="440.117" y="48.057"/>
      <point x="370.793" y="-6"/>
      <point x="242.372" y="-6" type="curve" smooth="yes"/>
      <point x="127.832" y="-6"/>
      <point x="50.815" y="57.911"/>
      <point x="50.815" y="153.813" type="curve"/>
      <point x="153.251" y="153.879" type="line"/>
      <point x="153.251" y="103.684"/>
      <point x="191.049" y="69.357"/>
      <point x="247.536" y="69.309" type="curve" smooth="yes"/>
      <point x="304.086" y="69.258"/>
      <point x="331.629" y="96.366"/>
      <point x="331.629" y="152.109" type="curve" smooth="yes"/>
      <point x="331.629" y="203.87"/>
      <point x="299.407" y="231.17"/>
      <point x="238.314" y="231.17" type="curve" smooth="yes"/>
      <point x="174.243" y="231.17" type="line"/>
      <point x="174.243" y="305.906" type="line"/>
      <point x="232.481" y="305.906" type="line" smooth="yes"/>
      <point x="291.687" y="305.906"/>
      <point x="323.885" y="332.431"/>
      <point x="323.885" y="381.228" type="curve" smooth="yes"/>
      <point x="323.885" y="433.738"/>
      <point x="296.332" y="459.372"/>
      <point x="239.916" y="459.356" type="curve" smooth="yes"/>
      <point x="189.181" y="459.34"/>
      <point x="153.251" y="424.584"/>
      <point x="153.251" y="373.826" type="curve"/>
      <point x="50.815" y="373.853" type="line"/>
      <point x="50.815" y="465.638"/>
      <point x="131.693" y="534.667"/>
      <point x="246.565" y="534.667" type="curve" smooth="yes"/>
      <point x="364.337" y="534.667"/>
      <point x="432.207" y="479.763"/>
      <point x="432.207" y="385.841" type="curve" smooth="yes"/>
      <point x="432.207" y="334.819"/>
      <point x="405.633" y="291.551"/>
      <point x="360.529" y="271.538" type="curve"/>
      <point x="412.434" y="251.328"/>
      <point x="440.117" y="206.209"/>
    </contour>
  </outline>
</glyph>
<glyph name="elcyr" format="2">
  <advance width="517"/>
  <unicode hex="043B"/>
  <outline>
    <contour>
      <point x="14.0303" y="98.668" type="line"/>
      <point x="47.9063" y="98.746"/>
      <point x="71.1593" y="129.204"/>
      <point x="78.1853" y="198.124" type="curve" smooth="yes"/>
      <point x="111.534" y="527.662" type="line"/>
      <point x="218" y="527.662" type="line"/>
      <point x="183.694" y="163.564" type="line" smooth="yes"/>
      <point x="173.311" y="52.826"/>
      <point x="116.543" y="0"/>
      <point x="14.0303" y="0" type="curve"/>
    </contour>
    <contour>
      <point x="153" y="447.333" type="line"/>
      <point x="153" y="527.667" type="line"/>
      <point x="389" y="527.667" type="line"/>
      <point x="389" y="447.333" type="line"/>
    </contour>
    <contour>
      <point x="347.666" y="527.667" type="line"/>
      <point x="455" y="527.667" type="line"/>
      <point x="455" y="0" type="line"/>
      <point x="347.666" y="0" type="line"/>
    </contour>
  </outline>
</glyph>
<glyph name="emcyr" format="2">
  <advance width="698"/>
  <unicode hex="043C"/>
  <outline>
    <contour>
      <point x="544.667" y="527.667" type="curve"/>
      <point x="635.334" y="527.667" type="line"/>
      <point x="635.334" y="0" type="line"/>
      <point x="528.001" y="0" type="line"/>
      <point x="528.001" y="314.645" type="line" smooth="yes"/>
      <point x="528.001" y="371.843"/>
      <point x="537.79" y="468.61"/>
    </contour>
    <contour>
      <point x="319.386" y="80" type="line"/>
      <point x="349.619" y="79.841" type="line"/>
      <point x="349.619" y="230.64" type="line"/>
      <point x="347.386" y="230.667" type="line"/>
      <point x="337.438" y="253.613"/>
      <point x="325.997" y="276.112"/>
      <point x="315.161" y="296.696" type="curve" smooth="yes"/>
      <point x="192.164" y="527.742" type="line"/>
      <point x="152.27" y="527.676" type="line"/>
      <point x="152.27" y="370.919" type="line"/>
      <point x="171.498" y="371.075" type="line"/>
      <point x="180.111" y="349.307"/>
      <point x="185.343" y="335.67"/>
      <point x="203.32" y="301.138" type="curve" smooth="yes"/>
    </contour>
    <contour>
      <point x="62.6665" y="527.667" type="line"/>
      <point x="62.6665" y="0" type="line"/>
      <point x="170" y="0" type="line"/>
      <point x="170" y="314.645" type="line" smooth="yes"/>
      <point x="170" y="371.843"/>
      <point x="160.211" y="468.61"/>
      <point x="153.334" y="527.667" type="curve"/>
    </contour>
    <contour>
      <point x="379.304" y="80" type="line"/>
      <point x="349.071" y="79.841" type="line"/>
      <point x="349.071" y="230.64" type="line"/>
      <point x="351.304" y="230.667" type="line"/>
      <point x="361.252" y="253.613"/>
      <point x="372.693" y="276.112"/>
      <point x="383.529" y="296.696" type="curve" smooth="yes"/>
      <point x="506.526" y="527.742" type="line"/>
      <point x="546.42" y="527.676" type="line"/>
      <point x="546.42" y="370.919" type="line"/>
      <point x="527.192" y="371.075" type="line"/>
      <point x="518.579" y="349.307"/>
      <point x="513.347" y="335.67"/>
      <point x="495.37" y="301.138" type="curve" smooth="yes"/>
    </contour>
  </outline>
</glyph>
<glyph name="encyr" format="2">
  <advance width="545"/>
  <unicode hex="043D"/>
  <anchor x="271" y="527.667" name="top"/>
  <outline>
    <component base="dotlessi" xOffset="-6"/>
    <component base="dotlessi" xOffset="306.667"/>
    <contour>
      <point x="113.333" y="246" type="line"/>
      <point x="113.333" y="321.333" type="line"/>
      <point x="434.161" y="321.333" type="line"/>
      <point x="434.161" y="246" type="line"/>
    </contour>
  </outline>
</glyph>
<glyph name="pecyr" format="2">
  <advance width="535"/>
  <unicode hex="043F"/>
  <anchor x="271" y="527.667" name="top"/>
  <outline>
    <component base="dotlessi" xOffset="-6"/>
    <component base="dotlessi" xOffset="296.667"/>
    <contour>
      <point x="103.333" y="452.333" type="line"/>
      <point x="103.333" y="527.666" type="line"/>
      <point x="424.161" y="527.666" type="line"/>
      <point x="424.161" y="452.333" type="line"/>
    </contour>
  </outline>
</glyph>
<glyph name="tecyr" format="2">
  <advance width="402"/>
  <unicode hex="0442"/>
  <anchor x="201" y="527.667" name="top"/>
  <outline>
    <component base="dotlessi" xOffset="79"/>
    <contour>
      <point x="0" y="452.333" type="line"/>
      <point x="0" y="527.667" type="line"/>
      <point x="401.814" y="527.667" type="line"/>
      <point x="401.814" y="452.333" type="line"/>
    </contour>
  </outline>
</glyph>
<glyph name="tsecyr" format="2">
  <advance width="556"/>
  <unicode hex="0446"/>
  <outline>
    <component base="dotlessi" xOffset="-6"/>
    <component base="dotlessi" xOffset="296.667"/>
    <contour>
      <point x="108.667" y="0" type="line"/>
      <point x="108.667" y="75.333" type="line"/>
      <point x="429.495" y="75.333" type="line"/>
      <point x="429.495" y="0" type="line"/>
    </contour>
    <contour>
      <point x="436.819" y="-169.881" type="line"/>
      <point x="436.819" y="75.512" type="line"/>
      <point x="545.819" y="75.512" type="line"/>
      <point x="545.819" y="-169.881" type="line"/>
    </contour>
  </outline>
</glyph>
<glyph name="shacyr" format="2">
  <advance width="780"/>
  <unicode hex="0448"/>
  <outline>
    <component base="dotlessi" xOffset="-6"/>
    <component base="dotlessi" xOffset="541.593"/>
    <component base="dotlessi" xOffset="268.041"/>
    <contour>
      <point x="108.667" y="0" type="line"/>
      <point x="108.667" y="75.333" type="line"/>
      <point x="668.301" y="75.333" type="line"/>
      <point x="668.301" y="0" type="line"/>
    </contour>
  </outline>
</glyph>
<glyph name="shchacyr" format="2">
  <advance width="801"/>
  <unicode hex="0449"/>
  <outline>
    <contour>
      <point x="681.486" y="-169.881" type="line"/>
      <point x="681.486" y="75.512" type="line"/>
      <point x="790.486" y="75.512" type="line"/>
      <point x="790.486" y="-169.881" type="line"/>
    </contour>
    <contour>
      <point x="62.333" y="527.667" type="line"/>
      <point x="169.667" y="527.667" type="line"/>
      <point x="169.667" y="0" type="line"/>
      <point x="62.333" y="0" type="line"/>
    </contour>
    <contour>
      <point x="609.926" y="527.667" type="line"/>
      <point x="717.26" y="527.667" type="line"/>
      <point x="717.26" y="0" type="line"/>
      <point x="609.926" y="0" type="line"/>
    </contour>
    <contour>
      <point x="108.667" y="0" type="line"/>
      <point x="108.667" y="75.333" type="line"/>
      <point x="668.301" y="75.333" type="line"/>
      <point x="668.301" y="0" type="line"/>
    </contour>
    <contour>
      <point x="336.374" y="527.667" type="line"/>
      <point x="443.708" y="527.667" type="line"/>
      <point x="443.708" y="0" type="line"/>
      <point x="336.374" y="0" type="line"/>
    </contour>
  </outline>
</glyph>
<glyph name="hardcyr" format="2">
  <advance width="570"/>
  <unicode hex="044A"/>
  <outline>
    <contour>
      <point x="519.45" y="149.28" type="curve" smooth="yes"/>
      <point x="519.45" y="54.673"/>
      <point x="455.635" y="0"/>
      <point x="345.21" y="0" type="curve" smooth="yes"/>
      <point x="196.148" y="0" type="line"/>
      <point x="196.148" y="75.448" type="line"/>
      <point x="326.101" y="75.31" type="line" smooth="yes"/>
      <point x="378.68" y="75.251"/>
      <point x="410.963" y="100.488"/>
      <point x="410.963" y="155.034" type="curve" smooth="yes"/>
      <point x="410.963" y="208.971"/>
      <point x="377.129" y="231.17"/>
      <point x="326.349" y="231.17" type="curve" smooth="yes"/>
      <point x="196.148" y="231.17" type="line"/>
      <point x="196.148" y="305.906" type="line"/>
      <point x="345.181" y="305.906" type="line" smooth="yes"/>
      <point x="452.745" y="305.906"/>
      <point x="519.45" y="245.965"/>
    </contour>
    <contour>
      <point x="130.333" y="527.667" type="line"/>
      <point x="237.667" y="527.667" type="line"/>
      <point x="237.667" y="0" type="line"/>
      <point x="130.333" y="0" type="line"/>
    </contour>
    <contour>
      <point x="0.253" y="452.333" type="line"/>
      <point x="0.253" y="527.667" type="line"/>
      <point x="192.632" y="527.667" type="line"/>
      <point x="192.632" y="452.333" type="line"/>
    </contour>
  </outline>
</glyph>
<glyph name="softcyr" format="2">
  <advance width="479"/>
  <unicode hex="044C"/>
  <outline>
    <component base="dotlessi" xOffset="-6"/>
    <contour>
      <point x="428.117" y="149.28" type="curve" smooth="yes"/>
      <point x="428.117" y="245.965"/>
      <point x="361.412" y="305.906"/>
      <point x="253.848" y="305.906" type="curve" smooth="yes"/>
      <point x="104.815" y="305.906" type="line"/>
      <point x="104.815" y="231.17" type="line"/>
      <point x="235.016" y="231.17" type="line" smooth="yes"/>
      <point x="285.796" y="231.17"/>
      <point x="319.63" y="208.971"/>
      <point x="319.63" y="155.034" type="curve" smooth="yes"/>
      <point x="319.63" y="100.488"/>
      <point x="287.347" y="75.251"/>
      <point x="234.768" y="75.31" type="curve" smooth="yes"/>
      <point x="104.815" y="75.448" type="line"/>
      <point x="104.815" y="0" type="line"/>
      <point x="253.877" y="0" type="line" smooth="yes"/>
      <point x="364.302" y="0"/>
      <point x="428.117" y="54.673"/>
    </contour>
  </outline>
</glyph>
<glyph name="ereversedcyr" format="2">
  <advance width="516"/>
  <unicode hex="044D"/>
  <anchor x="260.333" y="527.667" name="top"/>
  <outline>
    <contour>
      <point x="464.669" y="213.667" type="line" smooth="yes"/>
      <point x="464.669" y="74.881"/>
      <point x="394.933" y="-6"/>
      <point x="253.003" y="-6" type="curve" smooth="yes"/>
      <point x="138.256" y="-6"/>
      <point x="49.6692" y="55.96"/>
      <point x="49.6692" y="177.667" type="curve" smooth="yes"/>
      <point x="49.6692" y="183.667" type="line"/>
      <point x="153.003" y="183.667" type="line"/>
      <point x="152.618" y="121.673"/>
      <point x="191.793" y="89.333"/>
      <point x="251.336" y="89.333" type="curve" smooth="yes"/>
      <point x="332.377" y="89.333"/>
      <point x="357.336" y="142.808"/>
      <point x="357.336" y="215.667" type="curve" smooth="yes"/>
      <point x="357.336" y="312.333" type="line" smooth="yes"/>
      <point x="357.336" y="384.535"/>
      <point x="330.948" y="438.333"/>
      <point x="251.003" y="438.333" type="curve" smooth="yes"/>
      <point x="190.652" y="438.333"/>
      <point x="152.632" y="403.772"/>
      <point x="153.003" y="342" type="curve"/>
      <point x="49.6692" y="342" type="line"/>
      <point x="49.1132" y="469.624"/>
      <point x="130.168" y="534.667"/>
      <point x="253.336" y="534.667" type="curve" smooth="yes"/>
      <point x="394.261" y="534.667"/>
      <point x="464.669" y="452.68"/>
      <point x="464.669" y="315" type="curve" smooth="yes"/>
    </contour>
    <contour>
      <point x="212.175" y="246" type="line"/>
      <point x="212.175" y="321.333" type="line"/>
      <point x="395.336" y="321.333" type="line"/>
      <point x="395.336" y="246" type="line"/>
    </contour>
  </outline>
</glyph>
<glyph name="yucyr" format="2">
  <advance width="718"/>
  <unicode hex="044E"/>
  <anchor x="499" y="527.667" name="top"/>
  <outline>
    <component base="dotlessi" xOffset="-6"/>
    <component base="o" xScale="1" xOffset="197.667"/>
    <contour>
      <point x="124" y="246" type="line"/>
      <point x="124" y="321.333" type="line"/>
      <point x="302.728" y="321.333" type="line"/>
      <point x="302.728" y="246" type="line"/>
    </contour>
  </outline>
</glyph>
<glyph name="yacyr" format="2">
  <advance width="527"/>
  <unicode hex="044F"/>
  <outline>
    <component base="dotlessi" xScale="-1" xOffset="532.784"/>
    <contour>
      <point x="208.715" y="289.785" type="line"/>
      <point x="199.329" y="233.521" type="line"/>
      <point x="124.03" y="251.956"/>
      <point x="80.5766" y="292.38"/>
      <point x="80.5766" y="382.8" type="curve" smooth="yes"/>
      <point x="80.5766" y="481.967"/>
      <point x="154.137" y="527.667"/>
      <point x="254.534" y="527.667" type="curve" smooth="yes"/>
      <point x="395.969" y="527.667" type="line"/>
      <point x="395.969" y="452.289" type="line"/>
      <point x="271.022" y="452.36" type="line" smooth="yes"/>
      <point x="221.841" y="452.386"/>
      <point x="188.899" y="429.707"/>
      <point x="188.899" y="377.794" type="curve" smooth="yes"/>
      <point x="188.899" y="326.302"/>
      <point x="223.566" y="305.906"/>
      <point x="271.27" y="305.906" type="curve" smooth="yes"/>
      <point x="395.969" y="305.906" type="line"/>
      <point x="395.969" y="231.17" type="line"/>
      <point x="203.861" y="231.17" type="line"/>
      <point x="306.82" y="272.827" type="line"/>
      <point x="161.778" y="0" type="line"/>
      <point x="51.5056" y="0" type="line"/>
    </contour>
  </outline>
</glyph>
<glyph name="djecyr" format="2">
  <advance width="534"/>
  <unicode hex="0452"/>
  <anchor x="115.667" y="707" name="top"/>
  <outline>
    <contour>
      <point x="264.207" y="-64" type="line"/>
      <point x="323.316" y="-64"/>
      <point x="362.873" y="-51.718"/>
      <point x="362.873" y="1.667" type="curve" smooth="yes"/>
      <point x="362.873" y="211.074" type="line"/>
      <point x="470.873" y="211.074" type="line"/>
      <point x="470.873" y="-5" type="line" smooth="yes"/>
      <point x="470.873" y="-101.679"/>
      <point x="418.954" y="-158.667"/>
      <point x="320.54" y="-158.667" type="curve" smooth="yes"/>
      <point x="264.207" y="-158.667" type="line"/>
    </contour>
    <contour>
      <point x="62.333" y="707" type="line"/>
      <point x="170" y="707" type="line"/>
      <point x="170" y="475.333" type="line"/>
      <point x="201.21" y="514.239"/>
      <point x="249.22" y="534.333"/>
      <point x="298.667" y="534.333" type="curve" smooth="yes"/>
      <point x="414.764" y="534.333"/>
      <point x="470.667" y="454.747"/>
      <point x="470.667" y="345" type="curve" smooth="yes"/>
      <point x="470.667" y="0" type="line"/>
      <point x="362.667" y="0" type="line"/>
      <point x="362.667" y="331.667" type="line" smooth="yes"/>
      <point x="362.667" y="393.292"/>
      <point x="333.204" y="438.333"/>
      <point x="267.333" y="438.333" type="curve" smooth="yes"/>
      <point x="204.094" y="438.333"/>
      <point x="170" y="391.659"/>
      <point x="170" y="331.667" type="curve" smooth="yes"/>
      <point x="170" y="0" type="line"/>
      <point x="62.333" y="0" type="line"/>
    </contour>
    <contour>
      <point x="0" y="660.264" type="line"/>
      <point x="280.667" y="660.264" type="line"/>
      <point x="280.667" y="563.598" type="line"/>
      <point x="0" y="563.598" type="line"/>
    </contour>
  </outline>
</glyph>
<glyph name="eukrcyr" format="2">
  <advance width="516"/>
  <unicode hex="0454"/>
  <outline>
    <component base="c"/>
    <contour>
      <point x="120" y="246" type="line"/>
      <point x="120" y="321.333" type="line"/>
      <point x="303.161" y="321.333" type="line"/>
      <point x="303.161" y="246" type="line"/>
    </contour>
  </outline>
</glyph>
<glyph name="ljecyr" format="2">
  <advance width="764"/>
  <unicode hex="0459"/>
  <outline>
    <contour>
      <point x="14.0303" y="98.668" type="line"/>
      <point x="47.9063" y="98.746"/>
      <point x="71.1593" y="129.204"/>
      <point x="78.1853" y="198.124" type="curve" smooth="yes"/>
      <point x="111.534" y="527.662" type="line"/>
      <point x="218" y="527.662" type="line"/>
      <point x="183.694" y="163.564" type="line" smooth="yes"/>
      <point x="173.311" y="52.826"/>
      <point x="116.543" y="0"/>
      <point x="14.0303" y="0" type="curve"/>
    </contour>
    <contour>
      <point x="153" y="447.333" type="line"/>
      <point x="153" y="527.667" type="line"/>
      <point x="389" y="527.667" type="line"/>
      <point x="389" y="447.333" type="line"/>
    </contour>
    <contour>
      <point x="347.666" y="527.667" type="line"/>
      <point x="455" y="527.667" type="line"/>
      <point x="455" y="0" type="line"/>
      <point x="347.666" y="0" type="line"/>
    </contour>
    <contour>
      <point x="713.45" y="149.28" type="curve" smooth="yes"/>
      <point x="713.45" y="54.673"/>
      <point x="649.635" y="0"/>
      <point x="539.21" y="0" type="curve" smooth="yes"/>
      <point x="390.148" y="0" type="line"/>
      <point x="390.148" y="75.448" type="line"/>
      <point x="520.101" y="75.31" type="line" smooth="yes"/>
      <point x="572.68" y="75.251"/>
      <point x="604.963" y="100.488"/>
      <point x="604.963" y="155.034" type="curve" smooth="yes"/>
      <point x="604.963" y="208.971"/>
      <point x="571.129" y="231.17"/>
      <point x="520.349" y="231.17" type="curve" smooth="yes"/>
      <point x="390.148" y="231.17" type="line"/>
      <point x="390.148" y="305.906" type="line"/>
      <point x="539.181" y="305.906" type="line" smooth="yes"/>
      <point x="646.745" y="305.906"/>
      <point x="713.45" y="245.965"/>
    </contour>
    <contour>
      <point x="347.666" y="527.667" type="line"/>
      <point x="455" y="527.667" type="line"/>
      <point x="455" y="0" type="line"/>
      <point x="347.666" y="0" type="line"/>
    </contour>
  </outline>
</glyph>
<glyph name="njecyr" format="2">
  <advance width="792"/>
  <unicode hex="045A"/>
  <outline>
    <contour>
      <point x="741.117" y="149.28" type="curve" smooth="yes"/>
      <point x="741.117" y="54.673"/>
      <point x="677.302" y="0"/>
      <point x="566.877" y="0" type="curve" smooth="yes"/>
      <point x="417.815" y="0" type="line"/>
      <point x="417.815" y="75.448" type="line"/>
      <point x="547.768" y="75.31" type="line" smooth="yes"/>
      <point x="600.347" y="75.251"/>
      <point x="632.63" y="100.488"/>
      <point x="632.63" y="155.034" type="curve" smooth="yes"/>
      <point x="632.63" y="208.971"/>
      <point x="598.796" y="231.17"/>
      <point x="548.016" y="231.17" type="curve" smooth="yes"/>
      <point x="417.815" y="231.17" type="line"/>
      <point x="417.815" y="305.906" type="line"/>
      <point x="566.848" y="305.906" type="line" smooth="yes"/>
      <point x="674.412" y="305.906"/>
      <point x="741.117" y="245.965"/>
    </contour>
    <contour>
      <point x="375.333" y="527.667" type="line"/>
      <point x="482.667" y="527.667" type="line"/>
      <point x="482.667" y="0" type="line"/>
      <point x="375.333" y="0" type="line"/>
    </contour>
    <contour>
      <point x="62.333" y="527.667" type="line"/>
      <point x="169.667" y="527.667" type="line"/>
      <point x="169.667" y="0" type="line"/>
      <point x="62.333" y="0" type="line"/>
    </contour>
    <contour>
      <point x="375" y="527.667" type="line"/>
      <point x="482.334" y="527.667" type="line"/>
      <point x="482.334" y="0" type="line"/>
      <point x="375" y="0" type="line"/>
    </contour>
    <contour>
      <point x="113.333" y="246" type="line"/>
      <point x="113.333" y="321.333" type="line"/>
      <point x="434.161" y="321.333" type="line"/>
      <point x="434.161" y="246" type="line"/>
    </contour>
  </outline>
</glyph>
<glyph name="Germandbls" format="2">
  <advance width="747"/>
  <unicode hex="1E9E"/>
  <outline>
    <contour>
      <point x="77" y="1" type="line"/>
      <point x="77" y="480.333" type="line" smooth="yes"/>
      <point x="77" y="652.715"/>
      <point x="156.946" y="714.021"/>
      <point x="325.64" y="714.021" type="curve" smooth="yes"/>
      <point x="446.551" y="714.021"/>
      <point x="543.196" y="685.506"/>
      <point x="626.667" y="594.333" type="curve"/>
      <point x="470.333" y="415.667" type="line"/>
      <point x="598.672" y="406.172"/>
      <point x="686.667" y="345.669"/>
      <point x="686.667" y="207" type="curve" smooth="yes"/>
      <point x="686.667" y="22.054"/>
      <point x="563.824" y="-3"/>
      <point x="409" y="-3" type="curve" smooth="yes"/>
      <point x="296" y="-3" type="line"/>
      <point x="296" y="105.333" type="line"/>
      <point x="431.667" y="105.333" type="line" smooth="yes"/>
      <point x="512.986" y="105.333"/>
      <point x="575.667" y="115.846"/>
      <point x="575.667" y="207" type="curve" smooth="yes"/>
      <point x="575.667" y="304.086"/>
      <point x="486.595" y="309.323"/>
      <point x="407.26" y="309.323" type="curve" smooth="yes"/>
      <point x="315.667" y="309.323" type="line"/>
      <point x="315.667" y="402.333" type="line"/>
      <point x="476" y="580" type="line"/>
      <point x="421.894" y="607.442"/>
      <point x="390.723" y="610.667"/>
      <point x="331" y="610.667" type="curve" smooth="yes"/>
      <point x="235.315" y="610.667"/>
      <point x="188" y="588.039"/>
      <point x="188" y="483.333" type="curve" smooth="yes"/>
      <point x="188" y="1" type="line"/>
    </contour>
  </outline>
</glyph>
<glyph name="quotedblright" format="2">
  <advance width="366"/>
  <unicode hex="201D"/>
  <outline>
    <contour>
      <point x="44" y="707.333" type="line"/>
      <point x="146.667" y="707.333" type="line"/>
      <point x="146.667" y="513.333" type="line"/>
      <point x="44" y="424" type="line"/>
    </contour>
    <contour>
      <point x="220.333" y="707.333" type="line"/>
      <point x="322.667" y="707.333" type="line"/>
      <point x="322.667" y="513.333" type="line"/>
      <point x="220.333" y="424" type="line"/>
    </contour>
  </outline>
</glyph>
<glyph name="daggerdbl" format="2">
  <advance width="552"/>
  <unicode hex="2021"/>
  <outline>
    <contour>
      <point x="333.667" y="381.667" type="line"/>
      <point x="333.667" y="171" type="line"/>
      <point x="489.667" y="171" type="line"/>
      <point x="489.667" y="69.667" type="line"/>
      <point x="333.667" y="69.667" type="line"/>
      <point x="333.667" y="-158.667" type="line"/>
      <point x="219.333" y="-158.667" type="line"/>
      <point x="219.333" y="69.667" type="line"/>
      <point x="62.333" y="69.667" type="line"/>
      <point x="62.333" y="171" type="line"/>
      <point x="219.333" y="171" type="line"/>
      <point x="219.333" y="381.667" type="line"/>
      <point x="62.333" y="381.667" type="line"/>
      <point x="62.333" y="483" type="line"/>
      <point x="219.333" y="483" type="line"/>
      <point x="219.333" y="707" type="line"/>
      <point x="333.667" y="707" type="line"/>
      <point x="333.667" y="483" type="line"/>
      <point x="489.667" y="483" type="line"/>
      <point x="489.667" y="381.667" type="line"/>
    </contour>
  </outline>
</glyph>
<glyph name="perthousand" format="2">
  <advance width="1251"/>
  <unicode hex="2030"/>
  <outline>
    <contour>
      <point x="41.667" y="423.667" type="curve" smooth="yes"/>
      <point x="41.667" y="567.667" type="line" smooth="yes"/>
      <point x="41.667" y="656.398"/>
      <point x="81.322" y="713.333"/>
      <point x="175" y="713.333" type="curve" smooth="yes"/>
      <point x="271.348" y="713.333"/>
      <point x="308" y="659.176"/>
      <point x="308" y="567.667" type="curve" smooth="yes"/>
      <point x="308" y="423.667" type="line" smooth="yes"/>
      <point x="308" y="332.404"/>
      <point x="274.142" y="271"/>
      <point x="175" y="271" type="curve" smooth="yes"/>
      <point x="75.657" y="271"/>
      <point x="41.667" y="332.041"/>
    </contour>
    <contour>
      <point x="600.667" y="710.333" type="line"/>
      <point x="690" y="710.333" type="line"/>
      <point x="298.667" y="0" type="line"/>
      <point x="210.667" y="0" type="line"/>
    </contour>
    <contour>
      <point x="214.333" y="428" type="curve" smooth="yes"/>
      <point x="214.333" y="557" type="line" smooth="yes"/>
      <point x="214.333" y="587.072"/>
      <point x="215.934" y="633"/>
      <point x="175" y="633" type="curve" smooth="yes"/>
      <point x="133.921" y="633"/>
      <point x="135" y="587.372"/>
      <point x="135" y="557" type="curve" smooth="yes"/>
      <point x="135" y="428" type="line" smooth="yes"/>
      <point x="135" y="397.074"/>
      <point x="132.873" y="351.667"/>
      <point x="175" y="351.667" type="curve" smooth="yes"/>
      <point x="217.813" y="351.667"/>
      <point x="214.333" y="396.491"/>
    </contour>
    <contour>
      <point x="591.333" y="145.667" type="curve" smooth="yes"/>
      <point x="591.333" y="290.667" type="line" smooth="yes"/>
      <point x="591.333" y="379"/>
      <point x="631.763" y="435.333"/>
      <point x="724.667" y="435.333" type="curve" smooth="yes"/>
      <point x="820.076" y="435.333"/>
      <point x="858.333" y="382.047"/>
      <point x="858.333" y="290.667" type="curve" smooth="yes"/>
      <point x="858.333" y="145.667" type="line" smooth="yes"/>
      <point x="858.333" y="54.065"/>
      <point x="823.22" y="-6"/>
      <point x="724.667" y="-6" type="curve" smooth="yes"/>
      <point x="626.35" y="-6"/>
      <point x="591.333" y="54.295"/>
    </contour>
    <contour>
      <point x="942.333" y="145.667" type="curve" smooth="yes"/>
      <point x="942.333" y="290.667" type="line" smooth="yes"/>
      <point x="942.333" y="379.782"/>
      <point x="981.742" y="435.333"/>
      <point x="1075.67" y="435.333" type="curve" smooth="yes"/>
      <point x="1171.69" y="435.333"/>
      <point x="1208.67" y="382.226"/>
      <point x="1208.67" y="290.667" type="curve" smooth="yes"/>
      <point x="1208.67" y="145.667" type="line" smooth="yes"/>
      <point x="1208.67" y="53.86"/>
      <point x="1174.88" y="-6"/>
      <point x="1075.67" y="-6" type="curve" smooth="yes"/>
      <point x="976.324" y="-6"/>
      <point x="942.333" y="53.549"/>
    </contour>
    <contour>
      <point x="764" y="150.667" type="curve" smooth="yes"/>
      <point x="764" y="280" type="line" smooth="yes"/>
      <point x="764" y="310.943"/>
      <point x="766.779" y="355.333"/>
      <point x="724.667" y="355.333" type="curve" smooth="yes"/>
      <point x="683.141" y="355.333"/>
      <point x="685.333" y="310.591"/>
      <point x="685.333" y="280" type="curve" smooth="yes"/>
      <point x="685.333" y="150.667" type="line" smooth="yes"/>
      <point x="685.333" y="119.12"/>
      <point x="681.617" y="74.333"/>
      <point x="724.667" y="74.333" type="curve" smooth="yes"/>
      <point x="767.917" y="74.333"/>
      <point x="764" y="118.527"/>
    </contour>
    <contour>
      <point x="1115" y="150.667" type="curve" smooth="yes"/>
      <point x="1115" y="280" type="line" smooth="yes"/>
      <point x="1115" y="310.251"/>
      <point x="1116.61" y="355.333"/>
      <point x="1075.67" y="355.333" type="curve" smooth="yes"/>
      <point x="1033.42" y="355.333"/>
      <point x="1035.67" y="311.247"/>
      <point x="1035.67" y="280" type="curve" smooth="yes"/>
      <point x="1035.67" y="150.667" type="line" smooth="yes"/>
      <point x="1035.67" y="119.156"/>
      <point x="1033.08" y="74.333"/>
      <point x="1075.67" y="74.333" type="curve" smooth="yes"/>
      <point x="1118.92" y="74.333"/>
      <point x="1115" y="118.527"/>
    </contour>
  </outline>
</glyph>
<glyph name="fraction" format="2">
  <advance width="199"/>
  <unicode hex="2044"/>
  <outline>
    <contour>
      <point x="255.333" y="710.333" type="line"/>
      <point x="344" y="710.333" type="line"/>
      <point x="-46.333" y="0" type="line"/>
      <point x="-134.667" y="0" type="line"/>
    </contour>
  </outline>
</glyph>
<glyph name="fi" format="2">
  <advance width="583"/>
  <unicode hex="FB01"/>
  <outline>
    <contour>
      <point x="208.333" y="527.667" type="curve"/>
      <point x="308" y="527.667" type="line"/>
      <point x="308" y="450" type="line"/>
      <point x="208.333" y="450" type="line"/>
      <point x="208.333" y="0" type="line"/>
      <point x="101" y="0" type="line"/>
      <point x="101" y="450" type="line"/>
      <point x="41.667" y="450" type="line"/>
      <point x="41.667" y="527.667" type="line"/>
      <point x="101" y="527.667" type="line"/>
      <point x="101" y="568.667" type="line" smooth="yes"/>
      <point x="101" y="656.186"/>
      <point x="154.429" y="707"/>
      <point x="241.333" y="707" type="curve" smooth="yes"/>
      <point x="308" y="707" type="line"/>
      <point x="308" y="631" type="line"/>
      <point x="209.892" y="631"/>
      <point x="208.333" y="625.211"/>
    </contour>
    <contour>
      <point x="408" y="527.667" type="line"/>
      <point x="515" y="527.667" type="line"/>
      <point x="515" y="0" type="line"/>
      <point x="408" y="0" type="line"/>
    </contour>
    <contour>
      <point x="406" y="703.333" type="line"/>
      <point x="516.667" y="703.333" type="line"/>
      <point x="516.667" y="604.667" type="line"/>
      <point x="406" y="604.667" type="line"/>
    </contour>
  </outline>
</glyph>
<glyph name="fl" format="2">
  <advance width="628"/>
  <unicode hex="FB02"/>
  <outline>
    <contour>
      <point x="208.333" y="527.667" type="curve"/>
      <point x="308" y="527.667" type="line"/>
      <point x="308" y="450" type="line"/>
      <point x="208.333" y="450" type="line"/>
      <point x="208.333" y="0" type="line"/>
      <point x="101" y="0" type="line"/>
      <point x="101" y="450" type="line"/>
      <point x="41.667" y="450" type="line"/>
      <point x="41.667" y="527.667" type="line"/>
      <point x="101" y="527.667" type="line"/>
      <point x="101" y="568.667" type="line" smooth="yes"/>
      <point x="101" y="656.186"/>
      <point x="154.429" y="707"/>
      <point x="241.333" y="707" type="curve" smooth="yes"/>
      <point x="308" y="707" type="line"/>
      <point x="308" y="631" type="line"/>
      <point x="209.892" y="631"/>
      <point x="208.333" y="625.211"/>
    </contour>
    <contour>
      <point x="402" y="153.333" type="curve" smooth="yes"/>
      <point x="402" y="707" type="line"/>
      <point x="509.667" y="707" type="line"/>
      <point x="509.667" y="160" type="line" smooth="yes"/>
      <point x="509.667" y="87.048"/>
      <point x="548.154" y="94.333"/>
      <point x="607.667" y="94.333" type="curve"/>
      <point x="607.667" y="0" type="line"/>
      <point x="552.667" y="0" type="line" smooth="yes"/>
      <point x="454.865" y="0"/>
      <point x="402" y="56.489"/>
    </contour>
  </outline>
</glyph>
<glyph name="acutecomb.loclPLK" format="2">
  <outline>
    <contour>
      <point x="-20" y="730" type="line"/>
      <point x="102.667" y="730" type="line"/>
      <point x="43.667" y="596.667" type="line"/>
      <point x="-50.667" y="596.667" type="line"/>
    </contour>
  </outline>
</glyph>
<glyph name="caroncmb.alt" format="2">
  <outline>
    <contour>
      <point x="15.333" y="707" type="line"/>
      <point x="103.333" y="707" type="line"/>
      <point x="103.333" y="573" type="line"/>
      <point x="15.333" y="498.333" type="line"/>
    </contour>
  </outline>
</glyph>
<glyph name="four.dnom" format="2">
  <advance width="350"/>
  <outline>
    <contour>
      <point x="322.667" y="64.333" type="line"/>
      <point x="290.667" y="64.333" type="line"/>
      <point x="290.667" y="0" type="line"/>
      <point x="197.333" y="0" type="line"/>
      <point x="197.333" y="64.333" type="line"/>
      <point x="33" y="64.333" type="line"/>
      <point x="33" y="145.667" type="line"/>
      <point x="151" y="428.333" type="line"/>
      <point x="244.667" y="428.333" type="line"/>
      <point x="126.667" y="145.667" type="line"/>
      <point x="197.333" y="145.667" type="line"/>
      <point x="197.333" y="239.333" type="line"/>
      <point x="290.667" y="239.333" type="line"/>
      <point x="290.667" y="145.667" type="line"/>
      <point x="322.667" y="145.667" type="line"/>
    </contour>
  </outline>
</glyph>
<glyph name="hardcyr.loclBGR" format="2">
  <advance width="587"/>
  <outline>
    <component base="softcyr.loclBGR" xScale="1" xOffset="67.667"/>
    <contour>
      <point x="0.253" y="452.333" type="line"/>
      <point x="0.253" y="527.667" type="line"/>
      <point x="192.632" y="527.667" type="line"/>
      <point x="192.632" y="452.333" type="line"/>
    </contour>
  </outline>
</glyph>
<glyph name="nine.tosf" format="2">
  <advance width="524"/>
  <outline>
    <contour>
      <point x="297.333" y="126.333" type="line"/>
      <point x="279.707" y="116.819"/>
      <point x="257.272" y="113"/>
      <point x="237.333" y="113" type="curve" smooth="yes"/>
      <point x="123.968" y="113"/>
      <point x="57" y="191.23"/>
      <point x="57" y="301.667" type="curve" smooth="yes"/>
      <point x="57" y="334.333" type="line" smooth="yes"/>
      <point x="57" y="461.301"/>
      <point x="142.579" y="536"/>
      <point x="266.667" y="536" type="curve" smooth="yes"/>
      <point x="392.079" y="536"/>
      <point x="476" y="466.246"/>
      <point x="476" y="337" type="curve" smooth="yes"/>
      <point x="476" y="305" type="line" smooth="yes"/>
      <point x="476" y="249.98"/>
      <point x="456.55" y="199.693"/>
      <point x="431.333" y="151.667" type="curve" smooth="yes"/>
      <point x="268.333" y="-159" type="line"/>
      <point x="148.333" y="-159" type="line"/>
    </contour>
    <contour>
      <point x="361" y="306.333" type="curve" smooth="yes"/>
      <point x="361" y="339" type="line" smooth="yes"/>
      <point x="361" y="398.36"/>
      <point x="328.229" y="439.333"/>
      <point x="266.667" y="439.333" type="curve" smooth="yes"/>
      <point x="205.412" y="439.333"/>
      <point x="171.333" y="398.013"/>
      <point x="171.333" y="338.667" type="curve" smooth="yes"/>
      <point x="171.333" y="307.333" type="line" smooth="yes"/>
      <point x="171.333" y="248.253"/>
      <point x="206.269" y="208.333"/>
      <point x="266.667" y="208.333" type="curve" smooth="yes"/>
      <point x="326.981" y="208.333"/>
      <point x="361" y="247.379"/>
    </contour>
  </outline>
</glyph>
<glyph name="one.tosf" format="2">
  <advance width="524"/>
  <outline>
    <contour>
      <point x="282.333" y="415.667" type="line"/>
      <point x="88.333" y="289.333" type="line"/>
      <point x="88.333" y="415.333" type="line"/>
      <point x="280.667" y="541.667" type="line"/>
      <point x="395.667" y="541.667" type="line"/>
      <point x="395.667" y="0" type="line"/>
      <point x="282.333" y="0" type="line"/>
    </contour>
  </outline>
</glyph>
<glyph name="seven.tosf" format="2">
  <advance width="524"/>
  <outline>
    <contour>
      <point x="463" y="537.666" type="line"/>
      <point x="463" y="437" type="line"/>
      <point x="243" y="-160.667" type="line"/>
      <point x="128" y="-160.667" type="line"/>
      <point x="352" y="437" type="line"/>
      <point x="72.6663" y="437" type="line"/>
      <point x="72.6663" y="537.666" type="line"/>
    </contour>
  </outline>
</glyph>
<glyph name="softcyr.loclBGR" format="2">
  <advance width="519"/>
  <outline>
    <contour>
      <point x="468.117" y="213.215" type="curve" smooth="yes"/>
      <point x="468.117" y="94.899"/>
      <point x="395.29" y="-6"/>
      <point x="266.949" y="-6" type="curve" smooth="yes"/>
      <point x="140.907" y="-6"/>
      <point x="62.408" y="65.876"/>
      <point x="62.408" y="181.385" type="curve"/>
      <point x="169.741" y="181.372" type="line"/>
      <point x="169.741" y="122.617"/>
      <point x="203.973" y="89.461"/>
      <point x="264.799" y="89.31" type="curve" smooth="yes"/>
      <point x="321.512" y="89.165"/>
      <point x="359.629" y="136.159"/>
      <point x="359.629" y="206.195" type="curve" smooth="yes"/>
      <point x="359.629" y="268.927"/>
      <point x="320.294" y="310.275"/>
      <point x="260.563" y="310.275" type="curve" smooth="yes"/>
      <point x="213.92" y="310.275"/>
      <point x="159.808" y="300.435"/>
      <point x="104.815" y="270.503" type="curve"/>
      <point x="104.815" y="365.906" type="line"/>
      <point x="164.901" y="395.838"/>
      <point x="224.332" y="405.678"/>
      <point x="276.379" y="405.678" type="curve" smooth="yes"/>
      <point x="389.68" y="405.678"/>
      <point x="468.117" y="326.808"/>
    </contour>
    <contour>
      <point x="62.333" y="527.667" type="line"/>
      <point x="169.667" y="527.667" type="line"/>
      <point x="169.667" y="181.315" type="line"/>
      <point x="62.333" y="181.315" type="line"/>
    </contour>
  </outline>
</glyph>
<glyph name="three.tosf" format="2">
  <advance width="524"/>
  <outline>
    <contour>
      <point x="60.678" y="28.333" type="line"/>
      <point x="169" y="28.333" type="line"/>
      <point x="168.641" y="-37.562"/>
      <point x="194.618" y="-70.667"/>
      <point x="261" y="-70.667" type="curve" smooth="yes"/>
      <point x="328.267" y="-70.667"/>
      <point x="354.333" y="-21.75"/>
      <point x="354.333" y="38.333" type="curve" smooth="yes"/>
      <point x="354.333" y="130.474"/>
      <point x="300.729" y="148.562"/>
      <point x="216.333" y="148.333" type="curve"/>
      <point x="216.333" y="244.667" type="line"/>
      <point x="306.087" y="244.409"/>
      <point x="343" y="260.187"/>
      <point x="343" y="352.667" type="curve" smooth="yes"/>
      <point x="343" y="404.248"/>
      <point x="311.258" y="440"/>
      <point x="257.667" y="440" type="curve" smooth="yes"/>
      <point x="194.705" y="440"/>
      <point x="172.353" y="402.856"/>
      <point x="172.667" y="340" type="curve"/>
      <point x="67" y="340" type="line"/>
      <point x="67" y="357" type="line" smooth="yes"/>
      <point x="67" y="474.496"/>
      <point x="147.098" y="536.333"/>
      <point x="261.667" y="536.333" type="curve" smooth="yes"/>
      <point x="380.144" y="536.333"/>
      <point x="454.333" y="467.573"/>
      <point x="454.333" y="350.667" type="curve" smooth="yes"/>
      <point x="454.333" y="284.613"/>
      <point x="423.921" y="233.495"/>
      <point x="369.333" y="206.667" type="curve"/>
      <point x="443.998" y="176.763"/>
      <point x="465.667" y="112.223"/>
      <point x="465.667" y="27.667" type="curve" smooth="yes"/>
      <point x="465.667" y="-91.63"/>
      <point x="380.137" y="-165.333"/>
      <point x="262" y="-165.333" type="curve" smooth="yes"/>
      <point x="145.311" y="-165.333"/>
      <point x="60.678" y="-111.804"/>
      <point x="60.678" y="11.352" type="curve" smooth="yes"/>
    </contour>
  </outline>
</glyph>
<glyph name="two.dnom" format="2">
  <advance width="345"/>
  <outline>
    <contour>
      <point x="45.333" y="72.333" type="line"/>
      <point x="186" y="253.333" type="line" smooth="yes"/>
      <point x="202.407" y="274.552"/>
      <point x="208.667" y="288.106"/>
      <point x="208.667" y="315" type="curve" smooth="yes"/>
      <point x="208.667" y="338.992"/>
      <point x="196.034" y="357.667"/>
      <point x="170.333" y="357.667" type="curve" smooth="yes"/>
      <point x="136.834" y="357.667"/>
      <point x="132.333" y="328.641"/>
      <point x="132.333" y="302" type="curve"/>
      <point x="42.333" y="302" type="line"/>
      <point x="42.333" y="317" type="line" smooth="yes"/>
      <point x="42.333" y="395.273"/>
      <point x="100.885" y="435.333"/>
      <point x="174.333" y="435.333" type="curve" smooth="yes"/>
      <point x="253.957" y="435.333"/>
      <point x="303.667" y="387.357"/>
      <point x="303.667" y="308" type="curve" smooth="yes"/>
      <point x="303.667" y="265.838"/>
      <point x="288.087" y="240.366"/>
      <point x="263" y="208.333" type="curve" smooth="yes"/>
      <point x="163.667" y="80.667" type="line"/>
      <point x="304" y="80.667" type="line"/>
      <point x="304" y="0" type="line"/>
      <point x="45.333" y="0" type="line"/>
    </contour>
  </outline>
</glyph>
<glyph name="two.tosf" format="2">
  <advance width="524"/>
  <outline>
    <contour>
      <point x="70" y="90.667" type="line"/>
      <point x="261.333" y="250.667" type="line" smooth="yes"/>
      <point x="291.192" y="274.878"/>
      <point x="347" y="316.23"/>
      <point x="347" y="358" type="curve" smooth="yes"/>
      <point x="347" y="408.477"/>
      <point x="313.656" y="443.333"/>
      <point x="262.667" y="443.333" type="curve" smooth="yes"/>
      <point x="213.729" y="443.333"/>
      <point x="186.02" y="411.395"/>
      <point x="180.667" y="365" type="curve"/>
      <point x="69" y="365" type="line"/>
      <point x="73.957" y="396.055"/>
      <point x="97.836" y="413.97"/>
      <point x="128" y="414.333" type="curve"/>
      <point x="141.263" y="495.686"/>
      <point x="208.867" y="540.705"/>
      <point x="298" y="534" type="curve"/>
      <point x="385.114" y="524.873"/>
      <point x="463.05" y="459.331"/>
      <point x="463.05" y="365.169" type="curve" smooth="yes"/>
      <point x="463.05" y="303.193"/>
      <point x="427.528" y="258.873"/>
      <point x="381" y="222.333" type="curve"/>
      <point x="233.667" y="101" type="line"/>
      <point x="463" y="101" type="line"/>
      <point x="463" y="0" type="line"/>
      <point x="70" y="0" type="line"/>
    </contour>
  </outline>
</glyph>
<glyph name="vecyr.loclBGR" format="2">
  <advance width="542"/>
  <outline>
    <contour>
      <point x="491.289" y="216.865" type="curve" smooth="yes"/>
      <point x="491.289" y="90.076"/>
      <point x="399.726" y="-6"/>
      <point x="274.936" y="-6" type="curve" smooth="yes"/>
      <point x="139.263" y="-6"/>
      <point x="62.333" y="73.64"/>
      <point x="62.333" y="208.6" type="curve" smooth="yes"/>
      <point x="62.333" y="497.638" type="line" smooth="yes"/>
      <point x="62.333" y="629.92"/>
      <point x="143.784" y="713.667"/>
      <point x="272.468" y="713.667" type="curve" smooth="yes"/>
      <point x="399.834" y="713.667"/>
      <point x="479.533" y="643.878"/>
      <point x="479.533" y="532.375" type="curve" smooth="yes"/>
      <point x="479.533" y="448.745"/>
      <point x="436.501" y="385.94"/>
      <point x="370.94" y="367.839" type="curve"/>
      <point x="374.157" y="390.613" type="line"/>
      <point x="441.523" y="379.849"/>
      <point x="491.289" y="311.379"/>
    </contour>
    <contour>
      <point x="169.667" y="198.42" type="line" smooth="yes"/>
      <point x="169.667" y="131.543"/>
      <point x="204.481" y="89.33"/>
      <point x="275.024" y="89.303" type="curve" smooth="yes"/>
      <point x="327.512" y="89.288"/>
      <point x="382.796" y="130.291"/>
      <point x="382.796" y="222.325" type="curve" smooth="yes"/>
      <point x="382.796" y="287.033"/>
      <point x="343.269" y="337.163"/>
      <point x="282.625" y="337.163" type="curve" smooth="yes"/>
      <point x="154.307" y="337.163" type="line"/>
      <point x="154.307" y="411.89" type="line"/>
      <point x="272.18" y="411.89" type="line" smooth="yes"/>
      <point x="329.635" y="411.89"/>
      <point x="371.213" y="454.476"/>
      <point x="371.213" y="518.135" type="curve" smooth="yes"/>
      <point x="371.213" y="580.348"/>
      <point x="333.595" y="618.357"/>
      <point x="272.162" y="618.357" type="curve" smooth="yes"/>
      <point x="212.379" y="618.357"/>
      <point x="169.667" y="568.543"/>
      <point x="169.667" y="498.498" type="curve" smooth="yes"/>
    </contour>
  </outline>
</glyph>
<glyph name="zero.dnom" format="2">
  <advance width="350"/>
  <outline>
    <contour>
      <point x="41.667" y="145" type="curve" smooth="yes"/>
      <point x="41.667" y="290" type="line" smooth="yes"/>
      <point x="41.667" y="379.115"/>
      <point x="81.076" y="434.667"/>
      <point x="175" y="434.667" type="curve" smooth="yes"/>
      <point x="271.021" y="434.667"/>
      <point x="308" y="381.559"/>
      <point x="308" y="290" type="curve" smooth="yes"/>
      <point x="308" y="145" type="line" smooth="yes"/>
      <point x="308" y="53.193"/>
      <point x="274.218" y="-6.667"/>
      <point x="175" y="-6.667" type="curve" smooth="yes"/>
      <point x="75.657" y="-6.667"/>
      <point x="41.667" y="52.882"/>
    </contour>
    <contour>
      <point x="214.333" y="150" type="curve" smooth="yes"/>
      <point x="214.333" y="279.333" type="line" smooth="yes"/>
      <point x="214.333" y="309.585"/>
      <point x="215.939" y="354.667"/>
      <point x="175" y="354.667" type="curve" smooth="yes"/>
      <point x="133.907" y="354.667"/>
      <point x="135" y="309.878"/>
      <point x="135" y="279.333" type="curve" smooth="yes"/>
      <point x="135" y="150" type="line" smooth="yes"/>
      <point x="135" y="118.49"/>
      <point x="132.41" y="73.667"/>
      <point x="175" y="73.667" type="curve" smooth="yes"/>
      <point x="218.25" y="73.667"/>
      <point x="214.333" y="117.86"/>
    </contour>
  </outline>
</glyph>
<glyph name="zero.osf" format="2">
  <advance width="517"/>
  <outline>
    <contour>
      <point x="50.0003" y="216" type="curve" smooth="yes"/>
      <point x="50.0003" y="317" type="line" smooth="yes"/>
      <point x="50.0003" y="453.036"/>
      <point x="107.548" y="539"/>
      <point x="251.333" y="539" type="curve" smooth="yes"/>
      <point x="395.509" y="539"/>
      <point x="453.666" y="453.793"/>
      <point x="453.666" y="317" type="curve" smooth="yes"/>
      <point x="453.666" y="216" type="line" smooth="yes"/>
      <point x="453.666" y="78.761"/>
      <point x="397.479" y="-10"/>
      <point x="251.333" y="-10" type="curve" smooth="yes"/>
      <point x="105.595" y="-10"/>
      <point x="50.0003" y="79.53"/>
    </contour>
    <contour>
      <point x="339.333" y="235.333" type="curve" smooth="yes"/>
      <point x="339.333" y="292.667" type="line" smooth="yes"/>
      <point x="339.333" y="356.441"/>
      <point x="333.116" y="431"/>
      <point x="251.333" y="431" type="curve" smooth="yes"/>
      <point x="169.55" y="431"/>
      <point x="163.333" y="356.441"/>
      <point x="163.333" y="292.667" type="curve" smooth="yes"/>
      <point x="163.333" y="235.333" type="line" smooth="yes"/>
      <point x="163.333" y="171.559"/>
      <point x="169.55" y="97"/>
      <point x="251.333" y="97" type="curve" smooth="yes"/>
      <point x="333.116" y="97"/>
      <point x="339.333" y="171.559"/>
    </contour>
  </outline>
</glyph>
<glyph name="zero.tosf" format="2">
  <advance width="524"/>
  <outline>
    <contour>
      <point x="62.667" y="216" type="curve" smooth="yes"/>
      <point x="62.667" y="317" type="line" smooth="yes"/>
      <point x="62.667" y="453.036"/>
      <point x="120.215" y="539"/>
      <point x="264" y="539" type="curve" smooth="yes"/>
      <point x="408.176" y="539"/>
      <point x="466.333" y="453.793"/>
      <point x="466.333" y="317" type="curve" smooth="yes"/>
      <point x="466.333" y="216" type="line" smooth="yes"/>
      <point x="466.333" y="78.761"/>
      <point x="410.146" y="-10"/>
      <point x="264" y="-10" type="curve" smooth="yes"/>
      <point x="118.262" y="-10"/>
      <point x="62.667" y="79.53"/>
    </contour>
    <contour>
      <point x="352" y="235.333" type="curve" smooth="yes"/>
      <point x="352" y="292.667" type="line" smooth="yes"/>
      <point x="352" y="356.441"/>
      <point x="345.783" y="431"/>
      <point x="264" y="431" type="curve" smooth="yes"/>
      <point x="182.217" y="431"/>
      <point x="176" y="356.441"/>
      <point x="176" y="292.667" type="curve" smooth="yes"/>
      <point x="176" y="235.333" type="line" smooth="yes"/>
      <point x="176" y="171.559"/>
      <point x="182.217" y="97"/>
      <point x="264" y="97" type="curve" smooth="yes"/>
      <point x="345.783" y="97"/>
      <point x="352" y="171.559"/>
    </contour>
  </outline>
</glyph>
